<?xml version="1.0" encoding="UTF-8" standalone="no"?>
<!-- Created with Inkscape (http://www.inkscape.org/) -->

<svg
   xmlns:dc="http://purl.org/dc/elements/1.1/"
   xmlns:cc="http://creativecommons.org/ns#"
   xmlns:rdf="http://www.w3.org/1999/02/22-rdf-syntax-ns#"
   xmlns:svg="http://www.w3.org/2000/svg"
   xmlns="http://www.w3.org/2000/svg"
   xmlns:sodipodi="http://sodipodi.sourceforge.net/DTD/sodipodi-0.dtd"
   xmlns:inkscape="http://www.inkscape.org/namespaces/inkscape"
   width="101.56355mm"
   height="68.923927mm"
   viewBox="0 0 359.87083 244.21864"
   id="svg4159"
   version="1.1"
   inkscape:version="0.91 r13725"
   sodipodi:docname="bag.svg">
  <defs
     id="defs4161" />
  <sodipodi:namedview
     id="base"
     pagecolor="#ffffff"
     bordercolor="#666666"
     borderopacity="1.0"
     inkscape:pageopacity="0.0"
     inkscape:pageshadow="2"
     inkscape:zoom="0.70710678"
     inkscape:cx="415.64016"
     inkscape:cy="-143.55022"
     inkscape:document-units="px"
     inkscape:current-layer="layer1"
     showgrid="false"
     inkscape:window-width="1440"
     inkscape:window-height="851"
     inkscape:window-x="0"
     inkscape:window-y="1"
     inkscape:window-maximized="1"
     fit-margin-top="0"
     fit-margin-left="0"
     fit-margin-right="0"
     fit-margin-bottom="0" />
  <metadata
     id="metadata4164">
    <rdf:RDF>
      <cc:Work
         rdf:about="">
        <dc:format>image/svg+xml</dc:format>
        <dc:type
           rdf:resource="http://purl.org/dc/dcmitype/StillImage" />
        <dc:title></dc:title>
      </cc:Work>
    </rdf:RDF>
  </metadata>
  <g
     inkscape:label="Layer 1"
     inkscape:groupmode="layer"
     id="layer1"
     transform="translate(-308.06458,-537.77127)">
    <g
       id="g4818"
       transform="matrix(1.7920336,0,0,1.7920336,-386.51242,-522.64763)">
      <path
         sodipodi:nodetypes="ccccccccccccc"
         inkscape:connector-curvature="0"
         id="path4743"
         d="m 472.80357,629.09434 c 1.23217,-10.18626 -2.69192,-17.24606 -7.85714,-26.69642 -1.00175,-5.28672 5.73201,-8.25801 8.03571,-5.17858 l 3.81391,3.93012 c 1.62547,1.92286 7.00717,1.01186 7.77529,-0.74678 l 2.25009,-5.23691 c 0.78669,-2.1877 6.6248,-3.4962 7.94643,1.25 l 0.33285,5.5436 c -10e-5,2.03894 3.26353,3.53955 5.10197,2.14286 l 6.26161,-3.49003 c 2.3611,-1.7232 7.64316,3.10808 4.19643,6.60714 -5.72478,7.05558 -14.25937,13.14075 -10.56697,22.21429 -9.24077,-3.31154 -18.2867,-2.48549 -27.29018,-0.33929 z"
         style="fill:#40668c;fill-opacity:1;fill-rule:evenodd;stroke:#0a2a53;stroke-width:2.9000001;stroke-linecap:butt;stroke-linejoin:miter;stroke-miterlimit:4;stroke-dasharray:none;stroke-opacity:1" />
      <path
         sodipodi:nodetypes="ccccccc"
         inkscape:connector-curvature="0"
         id="path4784"
         d="m 472.89127,725.62313 c 10.6062,0.0865 10.35656,-3.89614 10.8356,-8.34975 l 0.44227,-35.23193 c -4.4536,-49.21829 -84.09956,-50.90301 -90.91961,-6.85051 l -0.65451,41.67307 c 0.63765,9.12226 4.64382,9.1011 10.83336,8.96278 z"
         style="fill:#e6e6e6;fill-opacity:1;fill-rule:evenodd;stroke:#e6e6e6;stroke-width:2.6050024;stroke-linecap:butt;stroke-linejoin:miter;stroke-miterlimit:4;stroke-dasharray:none;stroke-opacity:1" />
      <path
         sodipodi:nodetypes="ccccccccccccc"
         inkscape:connector-curvature="0"
         id="path4786"
         d="m 447.09972,644.97185 c -1.084,-7.46174 2.36821,-12.63325 6.9123,-19.55591 0.88128,-3.87268 -5.04273,-6.04924 -7.06939,-3.79346 l -3.35529,2.87892 c -1.43,1.40856 -6.16454,0.74122 -6.84029,-0.54703 l -1.97951,-3.8362 c -0.69209,-1.60255 -5.82815,-2.56106 -6.99085,0.91567 l -0.29282,4.06084 c 8e-5,1.49359 -2.87109,2.59283 -4.48845,1.56971 l -5.50864,-2.55655 c -2.07717,-1.26229 -6.72405,2.27676 -3.69179,4.83993 5.03636,5.16842 12.54464,9.62599 9.29626,16.27262 8.12954,-2.4258 16.08768,-1.82069 24.00847,-0.24854 z"
         style="fill:#e6e6e6;fill-opacity:1;fill-rule:evenodd;stroke:#e6e6e6;stroke-width:2.32803535;stroke-linecap:butt;stroke-linejoin:miter;stroke-miterlimit:4;stroke-dasharray:none;stroke-opacity:1" />
      <path
         style="fill:#e6e6e6;fill-opacity:1;fill-rule:evenodd;stroke:#e6e6e6;stroke-width:2.32803535;stroke-linecap:butt;stroke-linejoin:miter;stroke-miterlimit:4;stroke-dasharray:none;stroke-opacity:1"
         d="m 527.04361,646.22185 c 1.084,-7.46174 -2.36821,-12.63325 -6.9123,-19.55591 -0.88128,-3.87268 5.04273,-6.04924 7.06939,-3.79346 l 3.35529,2.87892 c 1.43,1.40856 6.16454,0.74122 6.84029,-0.54703 l 1.97951,-3.8362 c 0.69209,-1.60255 5.82815,-2.56106 6.99085,0.91567 l 0.29282,4.06084 c -8e-5,1.49359 2.87109,2.59283 4.48845,1.56971 l 5.50864,-2.55655 c 2.07717,-1.26229 6.72405,2.27676 3.69179,4.83993 -5.03636,5.16842 -12.54464,9.62599 -9.29626,16.27262 -8.12954,-2.4258 -16.08768,-1.82069 -24.00847,-0.24854 z"
         id="path4778"
         inkscape:connector-curvature="0"
         sodipodi:nodetypes="ccccccccccccc" />
      <path
         style="fill:#e6e6e6;fill-opacity:1;fill-rule:evenodd;stroke:#e6e6e6;stroke-width:2.6050024;stroke-linecap:butt;stroke-linejoin:miter;stroke-miterlimit:4;stroke-dasharray:none;stroke-opacity:1"
         d="m 500.12291,725.12313 c -10.6062,0.0865 -10.35656,-3.89614 -10.8356,-8.34975 l -0.44227,-35.23193 c 4.4536,-49.21829 84.09956,-50.90301 90.91961,-6.85051 l 0.65451,41.67307 c -0.63765,9.12226 -4.64382,9.1011 -10.83336,8.96278 z"
         id="path4782"
         inkscape:connector-curvature="0"
         sodipodi:nodetypes="ccccccc" />
      <path
         sodipodi:nodetypes="ccccccc"
         inkscape:connector-curvature="0"
         id="path4741"
         d="m 444.9722,724.5677 c -12.11239,0.10726 -11.82731,-4.83139 -12.37437,-10.35406 l -0.50508,-43.6891 c 5.08606,-61.03277 96.04268,-63.1219 103.83125,-8.49492 l 0.74746,51.6764 c -0.72821,11.31198 -5.3033,11.28574 -12.37183,11.11422 z"
         style="fill:#40668c;fill-opacity:1;fill-rule:evenodd;stroke:#0a2a53;stroke-width:3.0999999;stroke-linecap:butt;stroke-linejoin:miter;stroke-miterlimit:4;stroke-dasharray:none;stroke-opacity:1" />
      <circle
         r="24.691683"
         cy="679.36218"
         cx="485.375"
         id="path4745"
         style="opacity:0.95999995;fill:#4fd5f8;fill-opacity:1;stroke:#0a2a53;stroke-width:2.81699991;stroke-linecap:butt;stroke-linejoin:round;stroke-miterlimit:4;stroke-dasharray:none;stroke-opacity:1" />
      <g
         id="g4771">
        <path
           style="fill:#f8fdfe;fill-opacity:1;fill-rule:evenodd;stroke:#0a2a53;stroke-width:2.70000005;stroke-linecap:round;stroke-linejoin:miter;stroke-miterlimit:4;stroke-dasharray:none;stroke-opacity:1"
           d="m 481,626.2372 0.125,9.375"
           id="path4751"
           inkscape:connector-curvature="0" />
        <path
           inkscape:connector-curvature="0"
           id="path4753"
           d="m 491.5,626.2372 0.125,9.375"
           style="fill:#f8fdfe;fill-opacity:1;fill-rule:evenodd;stroke:#0a2a53;stroke-width:2.70000005;stroke-linecap:round;stroke-linejoin:miter;stroke-miterlimit:4;stroke-dasharray:none;stroke-opacity:1" />
        <path
           style="fill:#f8fdfe;fill-opacity:1;fill-rule:evenodd;stroke:#0a2a53;stroke-width:2.70000005;stroke-linecap:butt;stroke-linejoin:miter;stroke-miterlimit:4;stroke-dasharray:none;stroke-opacity:1"
           d="m 480.96875,626.6122 10.59375,0.0312 0.1875,-4.65625 c -0.19551,-4.61204 -10.88743,-5.37716 -10.75,-0.25 z"
           id="path4755"
           inkscape:connector-curvature="0"
           sodipodi:nodetypes="ccccc" />
      </g>
      <rect
         ry="0.59784454"
         y="725.38934"
         x="389.02716"
         height="1.1956891"
         width="197.94569"
         id="rect4776"
         style="opacity:0.95999995;fill:#f8fdfe;fill-opacity:1;stroke:#0a2a53;stroke-width:2.87131095;stroke-linecap:round;stroke-linejoin:round;stroke-miterlimit:4;stroke-dasharray:none;stroke-opacity:1" />
      <path
         inkscape:transform-center-y="-0.26283764"
         inkscape:transform-center-x="-0.50435833"
         d="m 562.133,624.21271 -4.06607,-3.36216 -5.07479,1.44346 1.94112,-4.90602 -2.94101,-4.38035 5.26575,0.33007 3.25713,-4.15068 1.31329,5.11002 4.95404,1.8151 -4.45409,2.82809 z"
         inkscape:randomized="0"
         inkscape:rounded="0"
         inkscape:flatsided="false"
         sodipodi:arg2="1.7776957"
         sodipodi:arg1="1.1493771"
         sodipodi:r2="3.9725621"
         sodipodi:r1="7.9451241"
         sodipodi:cy="616.96271"
         sodipodi:cx="558.883"
         sodipodi:sides="5"
         id="path4790"
         style="opacity:0.95999995;fill:#fca80b;fill-opacity:1;stroke:#fca80b;stroke-width:0.05617115;stroke-linecap:round;stroke-linejoin:round;stroke-miterlimit:4;stroke-dasharray:none;stroke-opacity:1"
         sodipodi:type="star" />
      <path
         inkscape:transform-center-y="0.37454789"
         inkscape:transform-center-x="-0.30901699"
         d="m 575.92895,661.10913 -2.65273,-3.87455 -4.69564,-0.0113 2.86517,-3.72021 -1.44031,-4.4693 4.42352,1.57533 3.80548,-2.7509 -0.1313,4.69381 3.79223,2.76915 -4.50466,1.32561 z"
         inkscape:randomized="0"
         inkscape:rounded="0"
         inkscape:flatsided="false"
         sodipodi:arg2="2.0572178"
         sodipodi:arg1="1.4288993"
         sodipodi:r2="3.5355339"
         sodipodi:r1="7.0710678"
         sodipodi:cy="654.10913"
         sodipodi:cx="574.92896"
         sodipodi:sides="5"
         id="path4794"
         style="opacity:0.95999995;fill:#fca80b;fill-opacity:1;stroke:#fca80b;stroke-width:0.05617115;stroke-linecap:round;stroke-linejoin:round;stroke-miterlimit:4;stroke-dasharray:none;stroke-opacity:1"
         sodipodi:type="star" />
      <path
         inkscape:transform-center-y="0.38196601"
         d="m 550.23224,650.31195 -1.17557,-2.38197 -2.62866,-0.38196 1.90212,-1.8541 -0.44903,-2.61804 2.35114,1.23607 2.35114,-1.23607 -0.44903,2.61804 1.90211,1.8541 -2.62865,0.38196 z"
         inkscape:randomized="0"
         inkscape:rounded="0"
         inkscape:flatsided="false"
         sodipodi:arg2="2.1991149"
         sodipodi:arg1="1.5707963"
         sodipodi:r2="2"
         sodipodi:r1="4"
         sodipodi:cy="646.31195"
         sodipodi:cx="550.23224"
         sodipodi:sides="5"
         id="path4796"
         style="opacity:0.95999995;fill:#fca80b;fill-opacity:1;stroke:#fca80b;stroke-width:0.05617115;stroke-linecap:round;stroke-linejoin:round;stroke-miterlimit:4;stroke-dasharray:none;stroke-opacity:1"
         sodipodi:type="star" />
      <path
         inkscape:transform-center-y="0.38196601"
         d="m 562.63605,688.81622 -1.17557,-2.38196 -2.62866,-0.38197 1.90211,-1.8541 -0.44902,-2.61803 2.35114,1.23606 2.35114,-1.23606 -0.44903,2.61803 1.90211,1.8541 -2.62865,0.38197 z"
         inkscape:randomized="0"
         inkscape:rounded="0"
         inkscape:flatsided="false"
         sodipodi:arg2="2.1991149"
         sodipodi:arg1="1.5707963"
         sodipodi:r2="2"
         sodipodi:r1="4"
         sodipodi:cy="684.81622"
         sodipodi:cx="562.63605"
         sodipodi:sides="5"
         id="path4798"
         style="opacity:0.95999995;fill:#fca80b;fill-opacity:1;stroke:#fca80b;stroke-width:0.05617115;stroke-linecap:round;stroke-linejoin:round;stroke-miterlimit:4;stroke-dasharray:none;stroke-opacity:1"
         sodipodi:type="star" />
      <path
         inkscape:transform-center-y="0.13235621"
         inkscape:transform-center-x="-0.22281126"
         d="m 541.0538,603.14935 -1.4889,-1.93494 -2.43804,0.12958 1.38014,-2.01396 -0.87662,-2.27867 2.34187,0.69025 1.89625,-1.53787 0.0672,2.44055 2.04858,1.32821 -2.30033,0.8181 z"
         inkscape:randomized="0"
         inkscape:rounded="0"
         inkscape:flatsided="false"
         sodipodi:arg2="2.0017193"
         sodipodi:arg1="1.3734008"
         sodipodi:r2="1.838279"
         sodipodi:r1="3.676558"
         sodipodi:cy="599.54419"
         sodipodi:cx="540.33276"
         sodipodi:sides="5"
         id="path4800"
         style="opacity:0.95999995;fill:#fca80b;fill-opacity:1;stroke:#fca80b;stroke-width:0.00743313;stroke-linecap:round;stroke-linejoin:round;stroke-miterlimit:4;stroke-dasharray:none;stroke-opacity:1"
         sodipodi:type="star" />
      <path
         inkscape:transform-center-y="0.20308505"
         inkscape:transform-center-x="0.7055311"
         d="m 411.82843,615.84747 -6.23339,-0.62631 -4.04976,4.77985 -1.33056,-6.12185 -5.79735,-2.37449 5.41106,-3.1572 0.46679,-6.24736 4.67478,4.17059 6.08585,-1.48659 -2.52189,5.73476 z"
         inkscape:randomized="0"
         inkscape:rounded="0"
         inkscape:flatsided="false"
         sodipodi:arg2="1.1869178"
         sodipodi:arg1="0.55859932"
         sodipodi:r2="4.7169905"
         sodipodi:r1="9.4339809"
         sodipodi:cy="610.84747"
         sodipodi:cx="403.82843"
         sodipodi:sides="5"
         id="path4802"
         style="opacity:0.95999995;fill:#fca80b;fill-opacity:1;stroke:#fca80b;stroke-width:0.05617115;stroke-linecap:round;stroke-linejoin:round;stroke-miterlimit:4;stroke-dasharray:none;stroke-opacity:1"
         sodipodi:type="star" />
      <path
         inkscape:transform-center-y="0.33981379"
         inkscape:transform-center-x="0.30872886"
         d="m 402.01041,656.88733 -4.45463,-0.0231 -2.54444,3.65651 -1.35457,-4.24375 -4.26382,-1.28998 3.61746,-2.59966 -0.0907,-4.45376 3.59028,2.63706 4.20774,-1.46259 -1.39854,4.22946 z"
         inkscape:randomized="0"
         inkscape:rounded="0"
         inkscape:flatsided="false"
         sodipodi:arg2="1.0919661"
         sodipodi:arg1="0.46364761"
         sodipodi:r2="3.3541019"
         sodipodi:r1="6.7082038"
         sodipodi:cy="653.88733"
         sodipodi:cx="396.01041"
         sodipodi:sides="5"
         id="path4804"
         style="opacity:0.95999995;fill:#fca80b;fill-opacity:1;stroke:#fca80b;stroke-width:0.05617115;stroke-linecap:round;stroke-linejoin:round;stroke-miterlimit:4;stroke-dasharray:none;stroke-opacity:1"
         sodipodi:type="star" />
      <path
         inkscape:transform-center-y="-0.35367207"
         inkscape:transform-center-x="0.018229793"
         d="m 418.3921,670.3286 -2.30193,-1.16594 -2.26548,1.23529 0.39754,-2.54956 -1.8749,-1.77287 2.54763,-0.40977 1.10672,-2.33098 1.17698,2.2963 2.55888,0.33224 -1.8202,1.82898 z"
         inkscape:randomized="0"
         inkscape:rounded="0"
         inkscape:flatsided="false"
         sodipodi:arg2="1.5556137"
         sodipodi:arg1="0.92729522"
         sodipodi:r2="1.9428556"
         sodipodi:r1="3.8857112"
         sodipodi:cy="667.22003"
         sodipodi:cx="416.06067"
         sodipodi:sides="5"
         id="path4806"
         style="opacity:0.95999995;fill:#fca80b;fill-opacity:1;stroke:#fca80b;stroke-width:0.04365297;stroke-linecap:round;stroke-linejoin:round;stroke-miterlimit:4;stroke-dasharray:none;stroke-opacity:1"
         sodipodi:type="star" />
      <path
         inkscape:transform-center-y="-0.20458716"
         inkscape:transform-center-x="0.20458716"
         d="m 428.9926,634.35478 -2.66157,-0.90256 -2.2524,1.68086 0.0359,-2.81021 -2.29462,-1.62275 2.68377,-0.83424 0.83424,-2.68377 1.62274,2.29463 2.81021,-0.0359 -1.68086,2.25239 z"
         inkscape:randomized="0"
         inkscape:rounded="0"
         inkscape:flatsided="false"
         sodipodi:arg2="1.4137167"
         sodipodi:arg1="0.78539816"
         sodipodi:r2="2.1160872"
         sodipodi:r1="4.2321744"
         sodipodi:cy="631.36218"
         sodipodi:cx="426"
         sodipodi:sides="5"
         id="path4808"
         style="opacity:0.95999995;fill:#fca80b;fill-opacity:1;stroke:#fca80b;stroke-width:0.04202443;stroke-linecap:round;stroke-linejoin:round;stroke-miterlimit:4;stroke-dasharray:none;stroke-opacity:1"
         sodipodi:type="star" />
      <path
         inkscape:transform-center-y="-0.016555278"
         inkscape:transform-center-x="0.32118521"
         d="m 436.81262,599.90408 -2.30334,-0.43115 -1.66097,1.65301 -0.30172,-2.32384 -2.08538,-1.06887 2.11687,-1.00506 0.37214,-2.31361 1.61001,1.70268 2.31537,-0.36102 -1.12182,2.05737 z"
         inkscape:randomized="0"
         inkscape:rounded="0"
         inkscape:flatsided="false"
         sodipodi:arg2="1.2718196"
         sodipodi:arg1="0.64350111"
         sodipodi:r2="1.7643929"
         sodipodi:r1="3.5287857"
         sodipodi:cy="597.7868"
         sodipodi:cx="433.98959"
         sodipodi:sides="5"
         id="path4810"
         style="opacity:0.95999995;fill:#fca80b;fill-opacity:1;stroke:#fca80b;stroke-width:0.03964319;stroke-linecap:round;stroke-linejoin:round;stroke-miterlimit:4;stroke-dasharray:none;stroke-opacity:1"
         sodipodi:type="star" />
      <path
         sodipodi:nodetypes="cccc"
         inkscape:connector-curvature="0"
         id="path4812"
         d="m 473.67315,699.25075 c 15.75849,-4.09527 30.96068,-8.8896 28.28428,-36.15083 6.8535,7.11687 9.10872,18.84994 3.09359,28.54944 -8.40499,13.64244 -25.26728,12.27292 -31.37787,7.60139 z"
         style="fill:#95e5fa;fill-opacity:1;fill-rule:evenodd;stroke:#000000;stroke-width:0;stroke-linecap:butt;stroke-linejoin:miter;stroke-miterlimit:4;stroke-dasharray:none;stroke-opacity:1" />
      <path
         sodipodi:nodetypes="cccccc"
         inkscape:connector-curvature="0"
         id="path4814"
         d="m 489.25,723.08187 c 49.39179,-22.32416 26.54369,-86.80692 11.13604,-96.53033 18.20299,3.19432 34.71104,19.90487 33.95235,42.14905 L 534.75,708.3622 c 0.54914,9.44666 -0.31907,15.41119 -7.30806,14.88128 z"
         style="fill:#6a88a6;fill-opacity:1;fill-rule:evenodd;stroke:#000000;stroke-width:0;stroke-linecap:butt;stroke-linejoin:miter;stroke-miterlimit:4;stroke-dasharray:none;stroke-opacity:1" />
      <path
         sodipodi:nodetypes="cccccc"
         inkscape:connector-curvature="0"
         id="path4816"
         d="m 498.06834,622.39709 c 0.6794,-2.71374 1.84467,-5.73255 7.51301,-11.57888 l 4.28683,-4.81716 c 1.56219,-2.89922 -1.8121,-4.93116 -2.47487,-4.28684 0.12707,3.06854 -14.8752,8.74358 -13.61181,20.01996 z"
         style="fill:#6a88a6;fill-opacity:1;fill-rule:evenodd;stroke:#000000;stroke-width:0;stroke-linecap:butt;stroke-linejoin:miter;stroke-miterlimit:4;stroke-dasharray:none;stroke-opacity:1" />
    </g>
  </g>
</svg>
