<?xml version="1.0" encoding="UTF-8" standalone="no"?>
<!-- Created with Inkscape (http://www.inkscape.org/) -->

<svg
   xmlns:dc="http://purl.org/dc/elements/1.1/"
   xmlns:cc="http://creativecommons.org/ns#"
   xmlns:rdf="http://www.w3.org/1999/02/22-rdf-syntax-ns#"
   xmlns:svg="http://www.w3.org/2000/svg"
   xmlns="http://www.w3.org/2000/svg"
   xmlns:sodipodi="http://sodipodi.sourceforge.net/DTD/sodipodi-0.dtd"
   xmlns:inkscape="http://www.inkscape.org/namespaces/inkscape"
   id="svg2"
   height=".36135in"
   viewBox="0 0 374.4819 32.522356"
   width="4.161in"
   version="1.1"
   inkscape:version="0.91 r13725"
   sodipodi:docname="company.svg">
  <defs
     id="defs10" />
  <sodipodi:namedview
     pagecolor="#ffffff"
     bordercolor="#666666"
     borderopacity="1"
     objecttolerance="10"
     gridtolerance="10"
     guidetolerance="10"
     inkscape:pageopacity="0"
     inkscape:pageshadow="2"
     inkscape:window-width="1430"
     inkscape:window-height="822"
     id="namedview8"
     showgrid="false"
     inkscape:zoom="0.88119848"
     inkscape:cx="85.678768"
     inkscape:cy="16.26075"
     inkscape:window-x="0"
     inkscape:window-y="23"
     inkscape:window-maximized="0"
     inkscape:current-layer="svg2" />
  <metadata
     id="metadata8">
    <rdf:RDF>
      <cc:Work
         rdf:about="">
        <dc:format>image/svg+xml</dc:format>
        <dc:type
           rdf:resource="http://purl.org/dc/dcmitype/StillImage" />
        <dc:title />
      </cc:Work>
    </rdf:RDF>
  </metadata>
  <g
     transform="translate(-17.865 -418.59)"
     style="font-weight:bold;font-size:43.59600067px;line-height:125%;font-family:'Avenir Next';text-align:justify;letter-spacing:0px;word-spacing:0px;fill:#4fd5f8"
     id="flowRoot4211">
    <path
       d="m 17.860242,450.28448 0,-30.86597 7.498513,0 0,24.37016 11.945304,0 0,6.49581 -19.443817,0 z"
       style=""
       id="path4139" />
    <path
       d="m 61.691253,450.28448 -2.39778,-6.05985 -11.945304,0 -2.266992,6.05985 -8.108857,0 12.948013,-30.86597 7.236936,0 12.817224,30.86597 -8.28324,0 z m -8.28324,-22.62633 -3.92364,10.59383 7.760088,0 -3.836448,-10.59383 z"
       style=""
       id="path4141" />
    <path
       d="m 97.916807,438.64434 q 0,2.79015 -0.959112,5.10074 -0.915516,2.26699 -2.659356,3.92364 -1.74384,1.61305 -4.228812,2.52856 -2.441376,0.91552 -5.4495,0.91552 -3.05172,0 -5.493097,-0.91552 -2.441376,-0.91551 -4.14162,-2.52856 -1.700244,-1.65665 -2.61576,-3.92364 -0.915516,-2.31059 -0.915516,-5.10074 l 0,-19.22583 7.41132,0 0,18.61549 q 0,1.26428 0.305172,2.39778 0.348768,1.1335 1.002708,2.04901 0.697536,0.87192 1.787437,1.39507 1.133496,0.52316 2.702952,0.52316 1.569456,0 2.659356,-0.52316 1.133496,-0.52315 1.831032,-1.39507 0.697536,-0.91551 1.002708,-2.04901 0.305172,-1.1335 0.305172,-2.39778 l 0,-18.61549 7.454916,0 0,19.22583 0,0 z"
       style=""
       id="path4143" />
    <path
       d="m 123.56352,450.28448 -12.42486,-20.18495 -0.13079,0 0.17438,20.18495 -7.23693,0 0,-30.86597 8.50122,0 12.38126,20.14135 0.13079,0 -0.17438,-20.14135 7.23693,0 0,30.86597 -8.45762,0 z"
       style=""
       id="path4145" />
    <path
       d="m 167.16225,434.7643 q 0,4.05443 -1.52586,7.01896 -1.48227,2.92093 -3.96724,4.83915 -2.44138,1.87463 -5.53669,2.79015 -3.09532,0.87192 -6.27783,0.87192 l -11.50934,0 0,-30.86597 11.16057,0 q 3.26971,0 6.45221,0.78473 3.18251,0.74113 5.66748,2.52856 2.48498,1.74384 4.01084,4.70837 1.52586,2.96453 1.52586,7.32413 z m -7.76009,0 q 0,-2.61576 -0.87192,-4.316 -0.82833,-1.74384 -2.26699,-2.74655 -1.39508,-1.04631 -3.22611,-1.48227 -1.78743,-0.43596 -3.70566,-0.43596 l -3.70566,0 0,18.04875 3.53128,0 q 2.00541,0 3.83645,-0.43596 1.87462,-0.47956 3.2697,-1.52586 1.43866,-1.04631 2.26699,-2.79015 0.87192,-1.74384 0.87192,-4.316 z"
       style=""
       id="path4147" />
    <path
       d="m 188.50181,450.28448 -6.67019,-12.25048 -2.52857,0 0,12.25048 -7.32412,0 0,-30.86597 11.77092,0 q 2.22339,0 4.316,0.47955 2.1362,0.43596 3.79285,1.52586 1.70025,1.0899 2.70295,2.87734 1.00271,1.78744 1.00271,4.44679 0,3.13891 -1.70024,5.27512 -1.70025,2.1362 -4.70837,3.05172 l 8.06526,13.20959 -8.7192,0 z m -0.30517,-21.40564 q 0,-1.0899 -0.47956,-1.74384 -0.43596,-0.69754 -1.17709,-1.0463 -0.69754,-0.39237 -1.61305,-0.52316 -0.87192,-0.13078 -1.70025,-0.13078 l -3.96723,0 0,7.19334 3.53127,0 q 0.91552,0 1.87463,-0.13079 0.95911,-0.17439 1.74384,-0.56675 0.78473,-0.39236 1.26429,-1.1335 0.52315,-0.74113 0.52315,-1.91822 z"
       style=""
       id="path4149" />
    <path
       d="m 215.41552,437.20568 0,13.0788 -7.45491,0 0,-13.0788 -11.59654,-17.78717 9.02437,0 6.583,11.42215 6.583,-11.42215 8.7192,0 -11.85812,17.78717 z"
       style=""
       id="path4151" />
    <path
       d="m 255.80653,427.44017 q -0.95911,-1.22069 -2.52856,-1.91822 -1.52586,-0.74113 -2.96453,-0.74113 -0.74113,0 -1.52586,0.13078 -0.74113,0.13079 -1.35148,0.52316 -0.61034,0.34876 -1.0463,0.95911 -0.39237,0.56675 -0.39237,1.48226 0,0.78473 0.30518,1.30788 0.34876,0.52315 0.95911,0.91552 0.65394,0.39236 1.52586,0.74113 0.87192,0.30517 1.96182,0.65394 1.56945,0.52315 3.2697,1.17709 1.70024,0.61035 3.09531,1.65665 1.39508,1.0463 2.31059,2.61576 0.91552,1.52586 0.91552,3.83645 0,2.65935 -1.00271,4.62117 -0.95911,1.91823 -2.61576,3.18251 -1.65665,1.26429 -3.79285,1.87463 -2.13621,0.61034 -4.4032,0.61034 -3.31329,0 -6.40861,-1.13349 -3.09532,-1.17709 -5.14433,-3.3133 l 4.88275,-4.96994 q 1.1335,1.39507 2.96453,2.35418 1.87463,0.91552 3.70566,0.91552 0.82833,0 1.61305,-0.17439 0.78473,-0.17438 1.35148,-0.56674 0.61034,-0.39237 0.95911,-1.04631 0.34877,-0.65394 0.34877,-1.56945 0,-0.87192 -0.43596,-1.48227 -0.43596,-0.61034 -1.26428,-1.0899 -0.78473,-0.52315 -2.00542,-0.91551 -1.17709,-0.43596 -2.70295,-0.91552 -1.48227,-0.47956 -2.92093,-1.1335 -1.39508,-0.65394 -2.52857,-1.65664 -1.0899,-1.04631 -1.78744,-2.48498 -0.65394,-1.48226 -0.65394,-3.57487 0,-2.57216 1.04631,-4.40319 1.0463,-1.83104 2.74654,-3.00813 1.70025,-1.17709 3.83645,-1.70024 2.13621,-0.56675 4.31601,-0.56675 2.61576,0 5.31871,0.95911 2.74655,0.95911 4.79556,2.83374 l -4.75197,5.01354 z"
       style=""
       id="path4153" />
    <path
       d="m 291.4592,438.64434 q 0,2.79015 -0.95911,5.10074 -0.91551,2.26699 -2.65935,3.92364 -1.74384,1.61305 -4.22882,2.52856 -2.44137,0.91552 -5.4495,0.91552 -3.05172,0 -5.49309,-0.91552 -2.44138,-0.91551 -4.14162,-2.52856 -1.70025,-1.65665 -2.61576,-3.92364 -0.91552,-2.31059 -0.91552,-5.10074 l 0,-19.22583 7.41132,0 0,18.61549 q 0,1.26428 0.30517,2.39778 0.34877,1.1335 1.00271,2.04901 0.69754,0.87192 1.78744,1.39507 1.13349,0.52316 2.70295,0.52316 1.56946,0 2.65936,-0.52316 1.13349,-0.52315 1.83103,-1.39507 0.69753,-0.91551 1.00271,-2.04901 0.30517,-1.1335 0.30517,-2.39778 l 0,-18.61549 7.45491,0 0,19.22583 0,0 z"
       style=""
       id="path4155" />
    <path
       d="m 324.64802,446.01207 q -2.04901,2.35418 -5.05713,3.74925 -3.00813,1.35148 -6.93177,1.35148 -3.57487,0 -6.62659,-1.17709 -3.00812,-1.17709 -5.23152,-3.3133 -2.2234,-2.1798 -3.48768,-5.18792 -1.26428,-3.00813 -1.26428,-6.62659 0,-3.70566 1.26428,-6.71379 1.30788,-3.00812 3.57487,-5.10073 2.26699,-2.1362 5.31871,-3.2697 3.05172,-1.1335 6.583,-1.1335 3.2697,0 6.40861,1.1771 3.18251,1.13349 5.14433,3.35689 l -5.05714,5.05713 q -1.0463,-1.43866 -2.74654,-2.1362 -1.70025,-0.69754 -3.48768,-0.69754 -1.96182,0 -3.61847,0.74114 -1.61305,0.69753 -2.79015,1.96182 -1.17709,1.26428 -1.83103,3.00812 -0.65394,1.70024 -0.65394,3.74926 0,2.0926 0.65394,3.83644 0.65394,1.74384 1.78744,3.00813 1.17709,1.22069 2.79014,1.91822 1.61305,0.69754 3.53128,0.69754 2.22339,0 3.88004,-0.87192 1.65665,-0.87192 2.65936,-2.26699 l 5.18792,4.88275 0,0 z"
       style=""
       id="path4157" />
    <path
       d="m 346.67762,450.28448 -11.46575,-14.2123 -0.0872,0 0,14.2123 -7.32413,0 0,-30.86597 7.32413,0 0,12.55565 0.13079,0 11.02978,-12.55565 9.32955,0 -13.29678,14.21229 14.08151,16.65368 -9.72191,0 z"
       style=""
       id="path4159" />
    <path
       d="m 375.0995,427.44017 q -0.95911,-1.22069 -2.52856,-1.91822 -1.52586,-0.74113 -2.96453,-0.74113 -0.74113,0 -1.52586,0.13078 -0.74113,0.13079 -1.35148,0.52316 -0.61034,0.34876 -1.0463,0.95911 -0.39237,0.56675 -0.39237,1.48226 0,0.78473 0.30518,1.30788 0.34876,0.52315 0.95911,0.91552 0.65394,0.39236 1.52586,0.74113 0.87192,0.30517 1.96182,0.65394 1.56945,0.52315 3.2697,1.17709 1.70024,0.61035 3.09531,1.65665 1.39508,1.0463 2.31059,2.61576 0.91552,1.52586 0.91552,3.83645 0,2.65935 -1.00271,4.62117 -0.95911,1.91823 -2.61576,3.18251 -1.65665,1.26429 -3.79285,1.87463 -2.13621,0.61034 -4.4032,0.61034 -3.31329,0 -6.40861,-1.13349 -3.09532,-1.17709 -5.14433,-3.3133 l 4.88275,-4.96994 q 1.1335,1.39507 2.96453,2.35418 1.87463,0.91552 3.70566,0.91552 0.82833,0 1.61305,-0.17439 0.78473,-0.17438 1.35148,-0.56674 0.61034,-0.39237 0.95911,-1.04631 0.34877,-0.65394 0.34877,-1.56945 0,-0.87192 -0.43596,-1.48227 -0.43596,-0.61034 -1.26428,-1.0899 -0.78473,-0.52315 -2.00542,-0.91551 -1.17709,-0.43596 -2.70295,-0.91552 -1.48227,-0.47956 -2.92093,-1.1335 -1.39508,-0.65394 -2.52857,-1.65664 -1.0899,-1.04631 -1.78744,-2.48498 -0.65394,-1.48226 -0.65394,-3.57487 0,-2.57216 1.04631,-4.40319 1.0463,-1.83104 2.74654,-3.00813 1.70025,-1.17709 3.83645,-1.70024 2.13621,-0.56675 4.31601,-0.56675 2.61576,0 5.31871,0.95911 2.74655,0.95911 4.79556,2.83374 l -4.75197,5.01354 z"
       style=""
       id="path4161" />
    <path
       d="m 392.35464,446.44803 q 0,1.83103 -1.30788,3.05172 -1.26428,1.22069 -3.05172,1.22069 -0.91551,0 -1.74384,-0.34877 -0.78472,-0.30517 -1.39507,-0.87192 -0.61034,-0.56675 -0.95911,-1.30788 -0.34877,-0.78473 -0.34877,-1.70025 0,-0.87192 0.34877,-1.65664 0.34877,-0.78473 0.95911,-1.35148 0.61035,-0.61034 1.39507,-0.95911 0.82833,-0.34877 1.74384,-0.34877 1.78744,0 3.05172,1.22069 1.30788,1.22069 1.30788,3.05172 z"
       style=""
       id="path4163" />
  </g>
</svg>
