<?xml version="1.0" encoding="UTF-8" standalone="no"?>
<!-- Created with Inkscape (http://www.inkscape.org/) -->

<svg
   xmlns:dc="http://purl.org/dc/elements/1.1/"
   xmlns:cc="http://creativecommons.org/ns#"
   xmlns:rdf="http://www.w3.org/1999/02/22-rdf-syntax-ns#"
   xmlns:svg="http://www.w3.org/2000/svg"
   xmlns="http://www.w3.org/2000/svg"
   xmlns:sodipodi="http://sodipodi.sourceforge.net/DTD/sodipodi-0.dtd"
   xmlns:inkscape="http://www.inkscape.org/namespaces/inkscape"
   width="127.51806mm"
   height="73.391144mm"
   viewBox="0 0 451.83564 260.04736"
   id="svg2"
   version="1.1"
   inkscape:version="0.91 r13725"
   sodipodi:docname="driver.svg">
  <defs
     id="defs4" />
  <sodipodi:namedview
     id="base"
     pagecolor="#ffffff"
     bordercolor="#666666"
     borderopacity="1.0"
     inkscape:pageopacity="0.0"
     inkscape:pageshadow="2"
     inkscape:zoom="1.979899"
     inkscape:cx="228.78434"
     inkscape:cy="130.53352"
     inkscape:document-units="px"
     inkscape:current-layer="layer1"
     showgrid="false"
     inkscape:window-width="1406"
     inkscape:window-height="819"
     inkscape:window-x="8"
     inkscape:window-y="12"
     inkscape:window-maximized="0"
     fit-margin-top="0"
     fit-margin-left="0"
     fit-margin-right="0"
     fit-margin-bottom="0" />
  <metadata
     id="metadata7">
    <rdf:RDF>
      <cc:Work
         rdf:about="">
        <dc:format>image/svg+xml</dc:format>
        <dc:type
           rdf:resource="http://purl.org/dc/dcmitype/StillImage" />
        <dc:title />
      </cc:Work>
    </rdf:RDF>
  </metadata>
  <g
     inkscape:label="Layer 1"
     inkscape:groupmode="layer"
     id="layer1"
     transform="translate(-286.71441,-468.86861)">
    <circle
       style="opacity:1;fill:#0a2a53;fill-opacity:1;stroke:#0a2a53;stroke-width:0.1;stroke-linecap:butt;stroke-linejoin:round;stroke-miterlimit:4;stroke-dasharray:none;stroke-dashoffset:0;stroke-opacity:1"
       id="path4450"
       cx="482.30515"
       cy="663.1051"
       r="16.541246" />
    <path
       style="fill:#40668c;fill-opacity:1;fill-rule:evenodd;stroke:#0a2a53;stroke-width:2.99399996;stroke-linecap:butt;stroke-linejoin:miter;stroke-miterlimit:4;stroke-dasharray:none;stroke-opacity:1"
       d="m 400.44133,664.00956 c -4.12098,-4.90536 -9.23157,-8.58222 -6.38016,-22.14298 l 13.88628,-61.54993 c 7.02776,-30.60333 137.09662,-31.8749 146.74401,-2.62712 l 13.88627,63.80174 c 2.92224,11.23847 -0.67152,17.40894 -5.62958,22.51829 -4.47628,4.3806 -8.91877,8.79872 -14.94582,11.45621 l -15.07851,2.80534 c -7.72336,1.74065 -10.7995,-26.25952 -7.50612,-28.14783 l 13.88628,-6.00485 c -29.45194,-58.49558 -90.62966,-49.89815 -114.46786,-0.75062 l 12.76036,5.25424 c 7.38279,3.91173 -2.56979,32.73516 -9.7579,30.02437 -9.47735,-3.15428 -18.6695,-7.7345 -27.39725,-14.63686 z"
       id="path4149"
       inkscape:connector-curvature="0"
       sodipodi:nodetypes="cccccccccccccc" />
    <path
       style="fill:#40668c;fill-opacity:1;fill-rule:evenodd;stroke:#0a2a53;stroke-width:2.67282438;stroke-linecap:butt;stroke-linejoin:miter;stroke-miterlimit:4;stroke-dasharray:none;stroke-opacity:1"
       d="m 447.11022,657.38836 16.0523,0.0863 c 3.42552,-20.86609 33.87148,-21.5937 38.21973,0 l 16.43446,0 c 0.012,-4.74423 -2.88576,-12.56269 9.17271,-19.22656 -31.17544,-39.97299 -72.71354,-24.49167 -90.19852,0.72555 11.1025,3.86354 9.47233,11.30662 10.31932,18.41488 z"
       id="path4151"
       inkscape:connector-curvature="0"
       sodipodi:nodetypes="ccccccc" />
    <path
       style="fill:#40668c;fill-opacity:1;fill-rule:evenodd;stroke:#0a2a53;stroke-width:2.29399991;stroke-linecap:butt;stroke-linejoin:miter;stroke-miterlimit:4;stroke-dasharray:none;stroke-opacity:1"
       d="m 444.84906,668.9706 18.18892,0.26543 c 0.96967,3.18201 1.44886,9.03864 14.21798,13.15646 l -0.37527,12.00975 c -10.03129,-0.9313 -17.1305,-5.0859 -23.28774,-17.63932 l -11.54726,-0.15753 z"
       id="path4153"
       inkscape:connector-curvature="0"
       sodipodi:nodetypes="ccccccc" />
    <path
       style="fill:#40668c;fill-opacity:1;fill-rule:evenodd;stroke:#0a2a53;stroke-width:1.99399996;stroke-linecap:butt;stroke-linejoin:miter;stroke-miterlimit:4;stroke-dasharray:none;stroke-opacity:1"
       d="m 485.88798,682.52223 0.19914,12.16129 c 7.07796,-0.22262 18.30612,-3.38635 24.12746,-16.73325 l 12.00781,0.0684 -2.86585,-8.1884 -18.83155,0.28623 c -1.9262,8.91313 -7.80049,11.03336 -14.63689,12.40586 z"
       id="path4155"
       inkscape:connector-curvature="0"
       sodipodi:nodetypes="ccccccc" />
    <path
       style="fill:#40668c;fill-opacity:1;fill-rule:evenodd;stroke:#0a2a53;stroke-width:2.39400005;stroke-linecap:butt;stroke-linejoin:miter;stroke-miterlimit:4;stroke-dasharray:none;stroke-opacity:1"
       d="m 425.58674,683.52538 10.13323,0 c 17.47124,40.26368 73.57008,41.11663 91.57427,0 l 10.88382,0 c -4.54524,18.69004 -24.25462,38.83878 -52.91793,39.12549 -34.08825,-0.0957 -52.27479,-14.87346 -59.67339,-39.12549 z"
       id="path4157"
       inkscape:connector-curvature="0"
       sodipodi:nodetypes="cccccc" />
    <path
       style="fill:#40668c;fill-opacity:1;fill-rule:evenodd;stroke:#0a2a53;stroke-width:2.75985932;stroke-linecap:butt;stroke-linejoin:miter;stroke-miterlimit:4;stroke-dasharray:none;stroke-opacity:1"
       d="m 452.97256,559.10652 c 4.75588,-1.46347 9.69621,-2.67225 8.92632,-11.76656 -5.55042,-5.61692 -5.94251,-11.57771 -7.70908,-17.44692 l -2.63735,-1.01436 c -2.11485,-0.5748 -4.5774,-16.16207 -2.84021,-17.54836 l 1.62301,-1.31867 c -3.29027,-22.57558 3.12194,-39.19609 30.8364,-39.76275 22.07967,0.5603 35.31856,10.39949 30.02494,39.76275 l 1.9273,1.21724 c 1.66301,1.36842 -1.11444,17.17099 -3.14451,17.85266 l -2.63734,0.81149 c -1.4058,6.44403 -3.10207,12.80384 -7.70911,17.64979 0.0823,10.93979 5.74685,9.22664 9.53496,11.76656 z"
       id="path4258"
       inkscape:connector-curvature="0"
       sodipodi:nodetypes="cccccccccccccc" />
    <path
       sodipodi:nodetypes="cccccccccccccc"
       inkscape:connector-curvature="0"
       id="path4345"
       d="m 549.84531,723.49399 3.18439,-38.44928 c 27.42239,-10.62861 38.6632,-32.32635 17.37443,-80.96243 l 16.8639,20.93421 20.45034,-0.8671 c -12.31624,-15.99635 -22.18842,-24.45912 -34.15069,-32.26062 l -6.7653,-1.93026 -6.36327,-18.08271 c 92.86427,24.67828 157.15266,104.76772 173.87656,151.37044 l -76.79308,-0.49547 c -1.83946,-12.1279 -6.35207,-23.8591 -10.29473,-35.67488 l -25.87594,0.24774 c 4.83764,12.4658 5.52597,24.66722 6.39943,36.17036 z"
       style="fill:#cccccc;fill-opacity:1;fill-rule:evenodd;stroke:#cccccc;stroke-width:3.01493239;stroke-linecap:butt;stroke-linejoin:miter;stroke-miterlimit:4;stroke-dasharray:none;stroke-opacity:1" />
    <path
       sodipodi:nodetypes="ccccc"
       inkscape:connector-curvature="0"
       id="path4347"
       d="m 598.66889,636.2013 19.95051,0.12628 c 8.54021,10.31596 14.55688,25.30204 20.58186,38.13325 l -21.46574,0.25254 c -1.97487,-7.81399 -15.42884,-34.06588 -19.06663,-38.51207 z"
       style="fill:#ffffff;fill-opacity:1;fill-rule:evenodd;stroke:#cccccc;stroke-width:2.9;stroke-linecap:butt;stroke-linejoin:miter;stroke-miterlimit:4;stroke-dasharray:none;stroke-opacity:1" />
    <g
       id="g4157"
       transform="matrix(1.1960917,0,0,1.1960917,-96.222312,-110.0749)">
      <g
         id="g4162"
         transform="matrix(1.1587427,0,0,1.1587427,-7.0870563,-57.568417)">
        <path
           style="fill:#fca80b;fill-opacity:1;fill-rule:evenodd;stroke:#0a2a53;stroke-width:1.94594006;stroke-linecap:butt;stroke-linejoin:miter;stroke-miterlimit:4;stroke-dasharray:none;stroke-dashoffset:0;stroke-opacity:1"
           d="m 363.98287,540.7526 c 0,0 -12.25404,51.60384 -11.91615,61.13075 0.314,8.85352 18.38445,19.37175 24.60391,20.8988 0,0 0.13394,5.18518 3.1552,11.34927 l -49.13281,0.33266 0.006,9.23912 c 0.28088,8.40956 -38.60031,10.12884 -38.61925,-1.54308 l 0.26543,-54.13759 c 0.2565,-8.353 3.84021,-13.11293 8.49219,-16.71896 -2.57978,-3.84485 -7.30436,-3.93634 -11.14598,-5.57299 -2.83714,-0.58592 0.77823,-12.90011 3.71533,-12.47287 l 21.2304,0 16.71896,-19.10738 c 5.07272,-6.43363 8.86613,-5.92232 12.73827,-5.83835 l 40.82675,1.39263 c 0,0 -16.94675,0.0737 -20.93825,11.04799 z"
           id="path4237"
           inkscape:connector-curvature="0"
           sodipodi:nodetypes="cssccccccccccccc" />
        <path
           style="fill:#ffffff;fill-rule:evenodd;stroke:#0a2a53;stroke-width:2.2114595;stroke-linecap:butt;stroke-linejoin:miter;stroke-miterlimit:4;stroke-dasharray:none;stroke-opacity:1"
           d="m 339.42323,598.45561 -28.13033,0 c -3.00127,-0.29515 -6.26341,-0.0948 -5.83835,-6.8999 l 0.26543,-8.22676 25.7419,2.91917 c 7.3144,1.04386 10.71969,4.62519 7.96135,12.20749 z"
           id="path4239"
           inkscape:connector-curvature="0"
           sodipodi:nodetypes="cccccc" />
        <path
           style="fill:#fcc254;fill-opacity:1;fill-rule:evenodd;stroke:#fcc254;stroke-width:0.89396356;stroke-linecap:butt;stroke-linejoin:miter;stroke-miterlimit:4;stroke-dasharray:none;stroke-opacity:1"
           d="m 316.73015,648.16695 c -10.07953,1.83678 -22.69876,-1.20759 -22.65739,-6.53317 l 0.32016,-50.98215 c -0.48554,-9.46958 3.20128,-15.11078 9.00703,-18.87627 -3.37137,-6.3339 -8.4111,-5.60939 -12.75703,-7.82015 -0.22041,-3.2173 2.14256,-8.59036 2.94643,-8.75 l 22.14286,-0.0893 18.30357,-21.07143 c 1.661,-2.41354 4.29456,-4.34081 11.78571,-3.83928 l 25.77296,0.26785 c -17.36063,5.45476 -26.77239,2.70098 -36.93367,16.60715 l -11.69643,13.75 c -4.82808,4.75858 -7.53336,11.08363 -13.63271,15.20657 -4.79218,2.96445 -7.10964,6.81892 -8.09698,14.06382 l -0.0306,47.58031 c -0.29704,5.94905 10.59477,7.77363 15.52613,10.48605 z"
           id="path4410"
           inkscape:connector-curvature="0"
           sodipodi:nodetypes="ccccccccccccccccc" />
      </g>
    </g>
    <path
       style="fill:#40668c;fill-opacity:1;fill-rule:evenodd;stroke:#000000;stroke-width:0;stroke-linecap:butt;stroke-linejoin:miter;stroke-miterlimit:4;stroke-dasharray:none;stroke-opacity:1"
       d="m 465.57449,555.52387 -2.33598,7.44988 54.99553,-2.10073 c -12.80932,-2.27115 -15.26823,-0.99146 -18.31437,-5.47542 z"
       id="path4446"
       inkscape:connector-curvature="0"
       sodipodi:nodetypes="ccccc" />
    <path
       style="fill:#6a88a6;fill-opacity:1;fill-rule:evenodd;stroke:#ff0000;stroke-width:0;stroke-linecap:butt;stroke-linejoin:miter;stroke-miterlimit:4;stroke-dasharray:none;stroke-opacity:1"
       d="m 419.48221,673.86592 c -26.16872,-11.41454 -27.1776,-23.41419 -22.94643,-35.53571 l 12.23214,-55.08929 c 1.93603,-12.45453 16.38914,-16.93357 31.51786,-20.98214 l 14.375,-2.67857 c 6.96049,-1.06178 9.12872,-5.79264 8.48214,-12.67858 -4.60992,-4.18433 -5.87117,-11.29874 -7.76786,-17.85714 -1.65193,-0.39509 -2.45708,-1.06867 -3.30357,-1.42857 -2.54717,-4.97024 -2.95486,-14.04762 -2.5,-14.91071 l 2.14286,-2.05357 c -0.9643,-13.1444 -3.25621,-29.68966 15.49108,-36.91965 -9.58877,25.35323 -10.64036,48.27874 3.10092,72.2036 5.0275,9.27812 -5.03288,20.30103 -13.32414,21.59105 -39.71163,8.66538 -38.08028,20.9713 -42.32143,32.76785 l -9.91072,43.39286 c -3.93358,15.01233 7.62968,21.34643 14.73215,30.17857 z"
       id="path4444"
       inkscape:connector-curvature="0"
       sodipodi:nodetypes="cccccccccccccccc" />
    <circle
       style="opacity:1;fill:#4fd5f8;fill-opacity:1;stroke:#0a2a53;stroke-width:0;stroke-linecap:butt;stroke-linejoin:round;stroke-miterlimit:4;stroke-dasharray:none;stroke-dashoffset:0;stroke-opacity:1"
       id="path4448"
       cx="482.30515"
       cy="663.10516"
       r="14.520943" />
    <path
       style="fill:#95e5fa;fill-opacity:1;fill-rule:evenodd;stroke:#000000;stroke-width:0;stroke-linecap:butt;stroke-linejoin:miter;stroke-miterlimit:4;stroke-dasharray:none;stroke-opacity:1"
       d="m 473.87821,674.93166 c 10.50257,0.93858 19.65103,-9.45303 20.5489,-19.8125 2.34222,3.01589 5.22152,12.45484 -3.60694,19.79018 -7.13142,4.80399 -14.37968,2.09947 -16.94196,0.0223 z"
       id="path4452"
       inkscape:connector-curvature="0"
       sodipodi:nodetypes="ccccc" />
    <rect
       style="opacity:1;fill:#0a2a53;fill-opacity:1;stroke:#0a2a53;stroke-width:0.07126164;stroke-linecap:butt;stroke-linejoin:round;stroke-miterlimit:4;stroke-dasharray:none;stroke-dashoffset:0;stroke-opacity:1"
       id="rect4476"
       width="448.97293"
       height="5.3858814"
       x="289.54147"
       y="723.49445"
       ry="2.6929407" />
  </g>
</svg>
