<?xml version="1.0" encoding="UTF-8" standalone="no"?>
<!-- Created with Inkscape (http://www.inkscape.org/) -->

<svg
   xmlns:dc="http://purl.org/dc/elements/1.1/"
   xmlns:cc="http://creativecommons.org/ns#"
   xmlns:rdf="http://www.w3.org/1999/02/22-rdf-syntax-ns#"
   xmlns:svg="http://www.w3.org/2000/svg"
   xmlns="http://www.w3.org/2000/svg"
   xmlns:sodipodi="http://sodipodi.sourceforge.net/DTD/sodipodi-0.dtd"
   xmlns:inkscape="http://www.inkscape.org/namespaces/inkscape"
   id="svg2"
   height="123.87201"
   viewBox="0 0 123.87403 123.87523"
   width="123.87201"
   version="1.1"
   inkscape:version="0.91 r13725"
   sodipodi:docname="home-btn.svg">
  <sodipodi:namedview
     pagecolor="#ffffff"
     bordercolor="#666666"
     borderopacity="1"
     objecttolerance="10"
     gridtolerance="10"
     guidetolerance="10"
     inkscape:pageopacity="0"
     inkscape:pageshadow="2"
     inkscape:window-width="1364"
     inkscape:window-height="757"
     id="namedview30"
     showgrid="false"
     fit-margin-top="0"
     fit-margin-left="0"
     fit-margin-right="0"
     fit-margin-bottom="0"
     inkscape:zoom="3.592632"
     inkscape:cx="93.242148"
     inkscape:cy="56.156756"
     inkscape:window-x="0"
     inkscape:window-y="69"
     inkscape:window-maximized="0"
     inkscape:current-layer="svg2" />
  <defs
     id="defs30">
    <clipPath
       id="clipPath4232"
       clipPathUnits="userSpaceOnUse">
      <rect
         id="rect4234"
         ry="8.7734003"
         height="131.38"
         width="134.8"
         y="252.91"
         x="353.56"
         style="opacity:0.97000002;fill:none" />
    </clipPath>
    <clipPath
       clipPathUnits="userSpaceOnUse"
       id="clipPath4340">
      <rect
         style="fill:none"
         x="225.39"
         y="148.85001"
         width="392.5"
         height="284.79999"
         ry="0.56344998"
         id="rect4342" />
    </clipPath>
  </defs>
  <metadata
     id="metadata8">
    <rdf:RDF>
      <cc:Work
         rdf:about="">
        <dc:format>image/svg+xml</dc:format>
        <dc:type
           rdf:resource="http://purl.org/dc/dcmitype/StillImage" />
        <dc:title></dc:title>
      </cc:Work>
    </rdf:RDF>
  </metadata>
  <g
     id="g4470"
     transform="translate(155.52116,-21.221601)">
    <g
       transform="matrix(1.0000011,0,0,1.0000011,-300.36456,-77.660964)"
       id="g32">
      <circle
         style="fill:#4fd5f8;stroke:#0a2a53;stroke-width:6.68510008;stroke-linejoin:round"
         r="58.595001"
         id="circle4453-4"
         cy="160.82001"
         cx="206.78" />
      <path
         style="fill:#95e5fa;fill-rule:evenodd;stroke-width:0"
         inkscape:connector-curvature="0"
         id="path4455-0"
         d="m 179.01,208.02 c 37.396,-9.7184 73.472,-21.096 67.121,-85.789 16.264,16.889 21.616,44.732 7.3413,67.75 -19.946,32.374 -59.961,29.125 -74.462,18.039 z" />
    </g>
    <g
       style="font-style:italic;font-variant:normal;font-weight:600;font-stretch:normal;font-size:18.48793602px;line-height:125%;font-family:'Avenir Next';-inkscape-font-specification:'Avenir Next, Semi-Bold Italic';text-align:justify;letter-spacing:0px;word-spacing:1.00002611px;writing-mode:lr-tb;text-anchor:start;fill:#0a2a53;fill-opacity:1;stroke:none;stroke-width:1px;stroke-linecap:butt;stroke-linejoin:miter;stroke-opacity:1"
       id="text4464">
      <path
         d="m -136.4652,87.59037 q 0.72104,-0.01849 1.27567,-0.129416 0.57313,-0.110928 1.10928,-0.36976 l 0.57313,-3.327836 -2.81017,0 0.36976,-1.978214 5.01024,0 -1.16474,6.7666 q -0.97987,0.480688 -2.21856,0.758008 -1.22021,0.277319 -2.47739,0.277319 -1.36811,0 -2.49588,-0.406735 -1.10928,-0.406736 -1.90426,-1.146255 -0.77649,-0.739519 -1.22021,-1.774846 -0.42522,-1.035327 -0.42522,-2.29251 0,-1.700894 0.59162,-3.179932 0.59161,-1.479038 1.62694,-2.569829 1.05381,-1.109279 2.4589,-1.73787 1.40509,-0.64708 3.03203,-0.64708 1.44206,0 2.66227,0.499176 1.23869,0.480687 1.97821,1.497526 l -1.79333,1.349623 q -0.42523,-0.591616 -1.14626,-0.979863 -0.70254,-0.406736 -1.77484,-0.406736 -1.16475,0 -2.14461,0.499176 -0.96137,0.499175 -1.66392,1.331134 -0.68405,0.831959 -1.0723,1.885774 -0.38825,1.053815 -0.38825,2.163094 0,0.850447 0.25883,1.571478 0.27732,0.721031 0.79499,1.238695 0.51766,0.517663 1.25718,0.813471 0.75801,0.295808 1.70089,0.295808 z"
         style="font-style:italic;font-variant:normal;font-weight:600;font-stretch:normal;font-size:18.48797989px;line-height:125%;font-family:'Avenir Next';-inkscape-font-specification:'Avenir Next, Semi-Bold Italic';text-align:start;letter-spacing:0px;writing-mode:lr-tb;text-anchor:start"
         id="path4479" />
      <path
         d="m -127.45722,85.501228 q -0.0185,0.09244 -0.0185,0.203368 0,0.443711 0.16639,0.813471 0.18488,0.369759 0.49917,0.647079 0.3143,0.258832 0.73952,0.425224 0.42523,0.147903 0.9244,0.147903 0.85045,0 1.44206,-0.314295 0.61011,-0.314296 1.09079,-0.850447 l 1.2387,1.164742 q -1.64543,1.774846 -4.01189,1.774846 -0.90591,0 -1.66392,-0.258831 -0.75801,-0.27732 -1.31265,-0.776495 -0.55464,-0.499176 -0.86893,-1.220207 -0.3143,-0.739519 -0.3143,-1.682406 0,-1.146255 0.38825,-2.126118 0.38825,-0.998351 1.0723,-1.73787 0.70254,-0.739519 1.64543,-1.146255 0.96138,-0.425223 2.08914,-0.425223 0.79499,0 1.46055,0.221855 0.68406,0.221856 1.18323,0.665568 0.49918,0.443711 0.7765,1.109278 0.27732,0.665568 0.27732,1.552991 0,0.295807 -0.0555,0.831959 -0.0555,0.517663 -0.1664,0.979863 l -6.58172,0 z m 4.80688,-1.552991 q 0.0185,-0.129415 0.0185,-0.240343 0.0185,-0.110928 0.0185,-0.221856 0,-0.721031 -0.51766,-1.220207 -0.49918,-0.499175 -1.42357,-0.499175 -0.57313,0 -1.03533,0.203368 -0.4622,0.203367 -0.81347,0.536151 -0.33279,0.314296 -0.55464,0.702543 -0.22186,0.388248 -0.29581,0.739519 l 4.60351,0 z"
         style="font-style:italic;font-variant:normal;font-weight:600;font-stretch:normal;font-size:18.48797989px;line-height:125%;font-family:'Avenir Next';-inkscape-font-specification:'Avenir Next, Semi-Bold Italic';text-align:start;letter-spacing:0px;writing-mode:lr-tb;text-anchor:start"
         id="path4481" />
      <path
         d="m -119.25866,82.136415 0.31429,-1.756358 1.5345,0 0.44372,-2.588317 2.1446,0 -0.44371,2.588317 1.9967,0 -0.31429,1.756358 -1.95973,0 -0.7765,4.178284 q -0.0555,0.27732 -0.0555,0.517663 0,0.480688 0.27732,0.665568 0.29581,0.184879 0.7765,0.184879 0.22185,0 0.42522,-0.03698 0.22185,-0.03697 0.40673,-0.09244 l -0.12941,1.64543 q -0.27732,0.110928 -0.66557,0.166392 -0.36976,0.07395 -0.68405,0.07395 -1.40509,0 -1.99671,-0.55464 -0.59161,-0.573127 -0.59161,-1.497526 0,-0.258832 0.0185,-0.55464 0.037,-0.314295 0.0924,-0.573127 l 0.758,-4.12282 -1.57147,0 z"
         style="font-style:italic;font-variant:normal;font-weight:600;font-stretch:normal;font-size:18.48797989px;line-height:125%;font-family:'Avenir Next';-inkscape-font-specification:'Avenir Next, Semi-Bold Italic';text-align:start;letter-spacing:0px;writing-mode:lr-tb;text-anchor:start"
         id="path4483" />
      <path
         d="m -97.997026,78.864043 q -0.36976,-0.591615 -0.979863,-0.868935 -0.591615,-0.27732 -1.294161,-0.27732 -0.35127,0 -0.77649,0.110928 -0.42523,0.110928 -0.79499,0.351272 -0.35127,0.221856 -0.59161,0.610103 -0.24034,0.388248 -0.24034,0.942887 0,0.702543 0.48068,1.090791 0.49918,0.388247 1.33114,0.702543 1.719379,0.628591 2.643778,1.516014 0.924399,0.868936 0.924399,2.366462 0,1.127767 -0.443711,1.92275 -0.443712,0.794983 -1.164743,1.294158 -0.721031,0.499176 -1.626943,0.721032 -0.90591,0.240343 -1.83031,0.240343 -0.64708,0 -1.31265,-0.129416 -0.64708,-0.129415 -1.23869,-0.388247 -0.59162,-0.258832 -1.10928,-0.647079 -0.49917,-0.406736 -0.85045,-0.961375 l 1.8488,-1.275671 q 0.36976,0.647079 1.10928,1.072303 0.75801,0.406735 1.66392,0.406735 0.4622,0 0.90591,-0.110927 0.4622,-0.110928 0.81347,-0.351272 0.36976,-0.258832 0.591616,-0.647079 0.240344,-0.406736 0.240344,-0.998351 0,-0.443712 -0.203368,-0.776495 -0.184882,-0.351272 -0.517662,-0.610104 -0.3143,-0.258831 -0.73952,-0.462199 -0.42522,-0.203368 -0.90591,-0.36976 -0.59162,-0.221856 -1.12777,-0.499175 -0.51766,-0.27732 -0.9244,-0.665568 -0.40673,-0.406735 -0.64708,-0.961375 -0.22185,-0.554639 -0.22185,-1.312646 0,-0.979863 0.40673,-1.73787 0.42523,-0.758007 1.10928,-1.275671 0.68406,-0.517663 1.57148,-0.776495 0.90591,-0.27732 1.86729,-0.27732 0.499172,0 1.016835,0.110928 0.536152,0.110928 1.016839,0.332784 0.499175,0.203368 0.924399,0.517663 0.443712,0.314296 0.739519,0.739519 l -1.663918,1.331135 z"
         style="font-style:italic;font-variant:normal;font-weight:600;font-stretch:normal;font-size:18.48797989px;line-height:125%;font-family:'Avenir Next';-inkscape-font-specification:'Avenir Next, Semi-Bold Italic';text-align:start;letter-spacing:0px;writing-mode:lr-tb;text-anchor:start"
         id="path4485" />
      <path
         d="m -95.845777,82.136415 0.314296,-1.756358 1.534502,0 0.443712,-2.588317 2.144606,0 -0.443712,2.588317 1.996702,0 -0.314296,1.756358 -1.959726,0 -0.776495,4.178284 q -0.05546,0.27732 -0.05546,0.517663 0,0.480688 0.27732,0.665568 0.295808,0.184879 0.776495,0.184879 0.221856,0 0.425224,-0.03698 0.221855,-0.03697 0.406735,-0.09244 l -0.129416,1.64543 q -0.277319,0.110928 -0.665567,0.166392 -0.369759,0.07395 -0.684055,0.07395 -1.405087,0 -1.996702,-0.55464 -0.591615,-0.573127 -0.591615,-1.497526 0,-0.258832 0.01849,-0.55464 0.03698,-0.314295 0.09244,-0.573127 l 0.758007,-4.12282 -1.571479,0 z"
         style="font-style:italic;font-variant:normal;font-weight:600;font-stretch:normal;font-size:18.48797989px;line-height:125%;font-family:'Avenir Next';-inkscape-font-specification:'Avenir Next, Semi-Bold Italic';text-align:start;letter-spacing:0px;writing-mode:lr-tb;text-anchor:start"
         id="path4487" />
      <path
         d="m -83.313816,83.633942 q 0.03698,-0.221856 0.03698,-0.332784 0.01849,-0.129416 0.01849,-0.240344 0,-0.647079 -0.425223,-0.924399 -0.406736,-0.277319 -1.220207,-0.277319 -0.647079,0 -1.349622,0.258831 -0.684056,0.240344 -1.220207,0.628592 l -0.831959,-1.460551 q 0.758007,-0.536151 1.719382,-0.831959 0.979863,-0.314295 1.996702,-0.314295 0.628591,0 1.238695,0.147903 0.628591,0.129416 1.109278,0.443712 0.499176,0.314296 0.794983,0.831959 0.295808,0.499176 0.295808,1.257183 0,0.166392 -0.01849,0.406735 -0.01849,0.240344 -0.05546,0.425224 l -0.647079,3.605156 q -0.09244,0.517663 -0.166392,1.072303 -0.05546,0.554639 -0.05546,0.924399 l -1.996702,0 q 0,-0.499176 0.110928,-1.053815 l -0.03698,0 q -1.035327,1.238695 -2.884125,1.238695 -0.462199,0 -0.961375,-0.110928 -0.499175,-0.110928 -0.905911,-0.36976 -0.406735,-0.27732 -0.665567,-0.721031 -0.258832,-0.4622 -0.258832,-1.146255 0,-1.090791 0.573128,-1.756358 0.591615,-0.684055 1.516014,-1.053815 0.924399,-0.388247 2.052166,-0.517663 1.146255,-0.129416 2.237045,-0.129416 z m -0.462199,1.55299 q -0.628591,0 -1.312647,0.05546 -0.665567,0.03698 -1.238694,0.203368 -0.55464,0.166392 -0.924399,0.480687 -0.351272,0.295808 -0.351272,0.813471 0,0.314296 0.110928,0.536152 0.129416,0.203368 0.332784,0.332784 0.203367,0.129415 0.462199,0.184879 0.258832,0.05546 0.536152,0.05546 0.499175,0 0.924399,-0.166392 0.443711,-0.166391 0.758007,-0.443711 0.332783,-0.295808 0.536151,-0.665567 0.221856,-0.388248 0.314296,-0.831959 l 0.110928,-0.55464 -0.258832,0 z"
         style="font-style:italic;font-variant:normal;font-weight:600;font-stretch:normal;font-size:18.48797989px;line-height:125%;font-family:'Avenir Next';-inkscape-font-specification:'Avenir Next, Semi-Bold Italic';text-align:start;letter-spacing:0px;writing-mode:lr-tb;text-anchor:start"
         id="path4489" />
      <path
         d="m -76.194789,81.859096 q 0.462199,-0.776495 1.09079,-1.238695 0.628592,-0.480687 1.516015,-0.480687 0.129416,0 0.27732,0.01849 0.147903,0 0.258831,0.03698 l -0.295807,2.015189 q -0.203368,-0.05546 -0.36976,-0.07395 -0.147904,-0.01849 -0.295808,-0.01849 -0.758007,0 -1.238694,0.27732 -0.480688,0.27732 -0.776496,0.665567 -0.295807,0.388248 -0.425223,0.794984 -0.129416,0.406735 -0.166392,0.647079 l -0.831959,4.751411 -2.163094,0 1.238695,-6.969969 q 0.07395,-0.351271 0.147904,-0.905911 0.09244,-0.554639 0.129416,-0.998351 l 2.033678,0 q 0,0.09244 -0.01849,0.27732 -0.01849,0.18488 -0.05546,0.406736 -0.01849,0.221855 -0.05546,0.443711 -0.01849,0.203368 -0.03698,0.351272 l 0.03698,0 z"
         style="font-style:italic;font-variant:normal;font-weight:600;font-stretch:normal;font-size:18.48797989px;line-height:125%;font-family:'Avenir Next';-inkscape-font-specification:'Avenir Next, Semi-Bold Italic';text-align:start;letter-spacing:0px;writing-mode:lr-tb;text-anchor:start"
         id="path4491" />
      <path
         d="m -71.79355,82.136415 0.314296,-1.756358 1.534502,0 0.443712,-2.588317 2.144606,0 -0.443712,2.588317 1.996702,0 -0.314296,1.756358 -1.959726,0 -0.776495,4.178284 q -0.05546,0.27732 -0.05546,0.517663 0,0.480688 0.27732,0.665568 0.295808,0.184879 0.776495,0.184879 0.221856,0 0.425224,-0.03698 0.221855,-0.03697 0.406735,-0.09244 l -0.129416,1.64543 q -0.277319,0.110928 -0.665567,0.166392 -0.369759,0.07395 -0.684055,0.07395 -1.405087,0 -1.996702,-0.55464 -0.591615,-0.573127 -0.591615,-1.497526 0,-0.258832 0.01849,-0.55464 0.03698,-0.314295 0.09244,-0.573127 l 0.758007,-4.12282 -1.571479,0 z"
         style="font-style:italic;font-variant:normal;font-weight:600;font-stretch:normal;font-size:18.48797989px;line-height:125%;font-family:'Avenir Next';-inkscape-font-specification:'Avenir Next, Semi-Bold Italic';text-align:start;letter-spacing:0px;writing-mode:lr-tb;text-anchor:start"
         id="path4493" />
      <path
         d="m -63.273484,85.501228 q -0.01849,0.09244 -0.01849,0.203368 0,0.443711 0.166392,0.813471 0.18488,0.369759 0.499175,0.647079 0.314296,0.258832 0.73952,0.425224 0.425223,0.147903 0.924399,0.147903 0.850447,0 1.442062,-0.314295 0.610103,-0.314296 1.090791,-0.850447 l 1.238694,1.164742 q -1.64543,1.774846 -4.011891,1.774846 -0.905911,0 -1.663918,-0.258831 -0.758008,-0.27732 -1.312647,-0.776495 -0.554639,-0.499176 -0.868935,-1.220207 -0.314296,-0.739519 -0.314296,-1.682406 0,-1.146255 0.388248,-2.126118 0.388247,-0.998351 1.072303,-1.73787 0.702543,-0.739519 1.64543,-1.146255 0.961375,-0.425223 2.089142,-0.425223 0.794983,0 1.46055,0.221855 0.684055,0.221856 1.183231,0.665568 0.499175,0.443711 0.776495,1.109278 0.27732,0.665568 0.27732,1.552991 0,0.295807 -0.05546,0.831959 -0.05546,0.517663 -0.166392,0.979863 l -6.581721,0 z m 4.806875,-1.552991 q 0.01849,-0.129415 0.01849,-0.240343 0.01849,-0.110928 0.01849,-0.221856 0,-0.721031 -0.517664,-1.220207 -0.499175,-0.499175 -1.423574,-0.499175 -0.573127,0 -1.035327,0.203368 -0.462199,0.203367 -0.813471,0.536151 -0.332784,0.314296 -0.55464,0.702543 -0.221855,0.388248 -0.295807,0.739519 l 4.603507,0 z"
         style="font-style:italic;font-variant:normal;font-weight:600;font-stretch:normal;font-size:18.48797989px;line-height:125%;font-family:'Avenir Next';-inkscape-font-specification:'Avenir Next, Semi-Bold Italic';text-align:start;letter-spacing:0px;writing-mode:lr-tb;text-anchor:start"
         id="path4495" />
      <path
         d="m -46.193965,75.277375 2.181582,0 -2.47739,13.976913 -2.052165,0 0.221855,-1.405087 -0.05546,0 q -0.536152,0.776495 -1.368111,1.201719 -0.831959,0.425223 -1.83031,0.425223 -0.850447,0 -1.55299,-0.277319 -0.684056,-0.27732 -1.183231,-0.776495 -0.480688,-0.517664 -0.758007,-1.220207 -0.258832,-0.702543 -0.258832,-1.55299 0,-1.146255 0.351272,-2.144606 0.369759,-0.998351 1.016839,-1.73787 0.647079,-0.758007 1.534502,-1.183231 0.905911,-0.443711 1.978214,-0.443711 1.220206,0 1.959726,0.443711 0.758007,0.443712 1.146254,1.220207 l 0.03698,0 1.109279,-6.526257 z M -53.108469,85.3903 q 0,0.979863 0.554639,1.64543 0.573127,0.665567 1.626942,0.665567 0.64708,0 1.220207,-0.277319 0.573127,-0.27732 0.979863,-0.758007 0.425223,-0.480688 0.665567,-1.109279 0.240344,-0.64708 0.240344,-1.349623 0,-1.016839 -0.610103,-1.663918 -0.610104,-0.647079 -1.645431,-0.647079 -0.684055,0 -1.257182,0.277319 -0.55464,0.27732 -0.961375,0.758008 -0.388248,0.462199 -0.610104,1.109278 -0.203367,0.628592 -0.203367,1.349623 z"
         style="font-style:italic;font-variant:normal;font-weight:600;font-stretch:normal;font-size:18.48797989px;line-height:125%;font-family:'Avenir Next';-inkscape-font-specification:'Avenir Next, Semi-Bold Italic';text-align:start;letter-spacing:0px;writing-mode:lr-tb;text-anchor:start"
         id="path4497" />
    </g>
  </g>
</svg>
