<?xml version="1.0" encoding="UTF-8" standalone="no"?>
<!-- Created with Inkscape (http://www.inkscape.org/) -->

<svg
   xmlns:dc="http://purl.org/dc/elements/1.1/"
   xmlns:cc="http://creativecommons.org/ns#"
   xmlns:rdf="http://www.w3.org/1999/02/22-rdf-syntax-ns#"
   xmlns:svg="http://www.w3.org/2000/svg"
   xmlns="http://www.w3.org/2000/svg"
   xmlns:sodipodi="http://sodipodi.sourceforge.net/DTD/sodipodi-0.dtd"
   xmlns:inkscape="http://www.inkscape.org/namespaces/inkscape"
   id="svg2"
   height="3.617826in"
   viewBox="0 0 390.45452 325.6092"
   width="4.338429in"
   version="1.1"
   inkscape:version="0.91 r13725"
   sodipodi:docname="home.svg">
  <defs
     id="defs39" />
  <sodipodi:namedview
     pagecolor="#ffffff"
     bordercolor="#666666"
     borderopacity="1"
     objecttolerance="10"
     gridtolerance="10"
     guidetolerance="10"
     inkscape:pageopacity="0"
     inkscape:pageshadow="2"
     inkscape:window-width="1434"
     inkscape:window-height="821"
     id="namedview37"
     showgrid="false"
     inkscape:zoom="1.1951896"
     inkscape:cx="49.432346"
     inkscape:cy="180.44978"
     inkscape:window-x="0"
     inkscape:window-y="46"
     inkscape:window-maximized="0"
     inkscape:current-layer="svg2"
     fit-margin-top="0"
     fit-margin-left="0"
     fit-margin-right="0"
     fit-margin-bottom="0" />
  <metadata
     id="metadata8">
    <rdf:RDF>
      <cc:Work
         rdf:about="">
        <dc:format>image/svg+xml</dc:format>
        <dc:type
           rdf:resource="http://purl.org/dc/dcmitype/StillImage" />
        <dc:title />
      </cc:Work>
    </rdf:RDF>
  </metadata>
  <g
     id="g4197">
    <path
       sodipodi:nodetypes="ccccc"
       inkscape:connector-curvature="0"
       id="path4175"
       d="m 7.676651,274.65994 377.463879,0 c -0.7947,3.63733 1.61109,8.43847 -4.73309,10.05781 l -367.406064,0 C 5.0293742,281.8078 8.6575195,278.06926 7.676651,274.65994 Z"
       style="fill:#95e5fa;fill-opacity:0.44230772;fill-rule:evenodd;stroke:#95e5fa;stroke-width:1.00001502px;stroke-linecap:butt;stroke-linejoin:miter;stroke-opacity:0" />
    <g
       transform="matrix(0.99999,0,0,0.99999,-11.72066,2.0179646)"
       id="g4393">
      <g
         id="g5">
        <path
           style="fill:#b3b3b3;fill-rule:evenodd;stroke:#b3b3b3;stroke-width:1px"
           d="m 327.25,6.169 c 6.22,-3.6485 33.12,16.294 33.31,35.979 l -0.89203,157.59 -13.975,1.4867 -0.29735,-162.05 c -1.18,-14.594 -11.12,-23.089 -18.15,-33.009 z"
           id="path4494-7"
           inkscape:connector-curvature="0" />
        <path
           style="fill:#ffffff;fill-opacity:1;stroke:#0a2a53;stroke-width:6.30000019"
           d="M 103.68,270.65 C 88.719,269.05 87.507,263.08 81.154,258.08 L 67.503,211.39 67.549,46.13 C 67.4,3.653 94.622,2.975 107.5,2.394 L 310.6,1.1328 c 10.299,-0.095472 35.726,9.1405 34.902,50.041 l 0.84101,148.02 0,71.508 z"
           id="path4168-5"
           inkscape:connector-curvature="0" />
        <path
           sodipodi:nodetypes="ccccc"
           style="fill:#b3b3b3;fill-rule:evenodd;stroke:#b3b3b3;stroke-width:1px"
           inkscape:connector-curvature="0"
           d="m 382.64,198.07 c 4.501,2.1721 9.2472,11.303 8.3256,25.869 l -0.86954,48.88535 -8.05076,-0.41834 z"
           id="path4496-3" />
        <path
           d="M 399.75,273.2 14.15,272.36"
           id="path4166-2"
           inkscape:connector-curvature="0"
           style="fill:none;stroke:#0a2a53;stroke-width:4.80000019;stroke-linecap:round" />
        <path
           sodipodi:nodetypes="ccccc"
           style="fill:#b3b3b3;fill-rule:evenodd;stroke:#b3b3b3;stroke-width:0.1000025;stroke-miterlimit:4;stroke-dasharray:none"
           inkscape:connector-curvature="0"
           d="m 86.262,213.07 c 4.2051,6.5741 12.195,7.9248 12.615,21.866 l -0.287618,31.652 C 94.708083,265.59206 90.371127,262.97267 86.262,261.2173 Z"
           id="path4498-8" />
      </g>
      <g
         id="g12"
         style="fill-rule:evenodd;stroke:#0a2a53">
        <path
           d="m 58.719,272.57 c -8.3767,-1.3772 -15.913,-5.1566 -20.395,-17.661 -0.59625,-8.9525 0.17017,-19.949 0.63076,-30.487 2.102,-21.207 41.114,-31.454 51.092,-1.8923 1.4329,11.708 1.0983,22.276 0.84102,31.118 -1.6576,11.122 -7.933,14.937 -15.138,18.292 z"
           id="path4158-1"
           inkscape:connector-curvature="0"
           style="fill:#fca80b;stroke-width:3.5999999" />
        <path
           sodipodi:nodetypes="cccccc"
           inkscape:connector-curvature="0"
           style="fill:#ffffff;stroke-width:2.80007005;stroke-linejoin:round;stroke-miterlimit:4;stroke-dasharray:none"
           d="m 77.642,228.42 c -4.723597,3.19367 -5.0949,8.5695 -5.2564,13.877 0.77377,6.4713 1.7298,12.651 5.2564,14.718 3.4796,-2.0347 5.2068,-7.2239 5.8871,-14.297 0.02076,-2.90324 0.03466,-8.83148 -5.8871,-14.297 z"
           id="path4160-4" />
        <path
           d="m 55.249,198.82 0,4.8884 16.925,0 0,-4.8884 z"
           id="path4162-8"
           inkscape:connector-curvature="0"
           style="fill:#fca80b;stroke-width:2" />
        <path
           d="m 59.77,198.77 8.0948,0 0,-3.9423 c -3.0312,-2.3128 -5.7119,-2.3128 -8.0422,0 z"
           id="path4164-8"
           inkscape:connector-curvature="0"
           style="fill:#4fd1f3;stroke-width:2" />
      </g>
      <g
         id="g18"
         style="fill:none;stroke:#0a2a53;stroke-width:6.30000019">
        <path
           d="m 67.45,77.048 79.99,-0.297"
           id="path4170-6"
           inkscape:connector-curvature="0" />
        <path
           d="M 178.21,77.345 345.62,76.899"
           id="path4172-8"
           inkscape:connector-curvature="0" />
        <path
           style="fill:#ffffff;fill-opacity:1"
           d="m 104.47,29.324 44.75,0 c 16.202,-0.28638 17.09,28.908 0,28.545 l -44.899,0 c -15.4,0.233 -16.311,-28.602 0.15,-28.545 z"
           id="path4174-0"
           inkscape:connector-curvature="0" />
      </g>
      <g
         id="g23"
         style="fill:#ffffff">
        <g
           id="g25">
          <circle
             r="16.641001"
             cy="43.448002"
             cx="263.10001"
             id="path4176-1"
             style="stroke:#0a2a53;stroke-width:5.1170001;stroke-linecap:round;stroke-linejoin:round" />
          <circle
             r="16.641001"
             cy="43.744999"
             cx="312.45999"
             id="ellipse4178-9"
             style="stroke:#0a2a53;stroke-width:5.1170001;stroke-linecap:round;stroke-linejoin:round" />
          <circle
             cx="206.74001"
             cy="160.92999"
             id="path4180-4"
             r="59.820999" />
        </g>
        <path
           d="m 315.65,269.42 c -4.9611,0.28922 -9.2032,-0.67979 -9.4614,-8.6204 l 0,-52.353 c 0.19896,-5.6439 1.8492,-9.7328 7.5692,-9.4615 21.025,3.7732 42.051,2.0638 63.076,0 3.1932,-0.31372 6.0306,0.3068 6.0974,8.1999 l 0,54.876 c 0.3218,5.7259 -4.7799,7.3964 -7.6246,7.2357 z"
           id="path4182-2"
           inkscape:connector-curvature="0"
           style="fill-rule:evenodd;stroke:#0a2a53;stroke-width:6.19999981" />
      </g>
      <path
         d="m 306.22,215.16 76.566,-1.0407"
         id="path4184-5"
         inkscape:connector-curvature="0"
         style="fill:none;stroke:#0a2a53;stroke-width:5.0999999" />
      <g
         id="g32">
        <circle
           cx="206.78"
           cy="160.82001"
           id="circle4453-4"
           r="58.595001"
           style="fill:#4fd5f8;stroke:#0a2a53;stroke-width:6.68510008;stroke-linejoin:round" />
        <path
           d="m 179.01,208.02 c 37.396,-9.7184 73.472,-21.096 67.121,-85.789 16.264,16.889 21.616,44.732 7.3413,67.75 -19.946,32.374 -59.961,29.125 -74.462,18.039 z"
           id="path4455-0"
           inkscape:connector-curvature="0"
           style="fill:#95e5fa;fill-rule:evenodd;stroke-width:0" />
        <path
           d="m 58.929,270.68 c -9.1682,-0.0791 -17.807,-9.9637 -18.765,-16.505 -0.2344,-1.6 0.21664,-28.194 0.47307,-28.279 1.2149,-11.896 10.134,-17.895 22.077,-19.869 -12.469,13.946 -23.917,28.585 -3.7846,64.653 z"
           id="path4500-4"
           inkscape:connector-curvature="0"
           style="fill:#fcc254;fill-rule:evenodd;stroke-width:0" />
      </g>
    </g>
    <g
       transform="matrix(1.7438077,0,0,1.7438077,4.499815,-209.53662)"
       style="font-style:normal;font-variant:normal;font-weight:bold;font-stretch:normal;font-size:25.00026131px;line-height:125%;font-family:'Avenir Next';-inkscape-font-specification:'Avenir Next, Bold';text-align:justify;letter-spacing:0px;word-spacing:0px;writing-mode:lr-tb;text-anchor:start;fill:#4fd5f8;fill-opacity:1;stroke:none;stroke-width:1px;stroke-linecap:butt;stroke-linejoin:miter;stroke-opacity:1"
       id="flowRoot4167">
      <path
         d="m 4.7840035,306.4085 0,-17.70018 4.3000449,0 0,13.97514 6.8500716,0 0,3.72504 -11.1501165,0 z"
         style=""
         id="path4232" />
      <path
         d="m 29.919032,306.4085 -1.375015,-3.47503 -6.850071,0 -1.300014,3.47503 -4.650048,0 7.425077,-17.70018 4.150044,0 7.350076,17.70018 -4.750049,0 z m -4.75005,-12.97513 -2.250023,6.07506 4.450046,0 -2.200023,-6.07506 z"
         style=""
         id="path4234" />
      <path
         d="m 50.692686,299.73343 q 0,1.60002 -0.550006,2.92503 -0.525006,1.30002 -1.525016,2.25003 -1.00001,0.92501 -2.425025,1.45001 -1.400015,0.52501 -3.125033,0.52501 -1.750018,0 -3.150033,-0.52501 -1.400015,-0.525 -2.375025,-1.45001 -0.97501,-0.95001 -1.500015,-2.25003 -0.525006,-1.32501 -0.525006,-2.92503 l 0,-11.02511 4.250045,0 0,10.67511 q 0,0.72501 0.175001,1.37501 0.200002,0.65001 0.575006,1.17502 0.400005,0.5 1.025011,0.8 0.650007,0.30001 1.550016,0.30001 0.90001,0 1.525016,-0.30001 0.650007,-0.3 1.050011,-0.8 0.400004,-0.52501 0.575006,-1.17502 0.175002,-0.65 0.175002,-1.37501 l 0,-10.67511 4.275045,0 0,11.02511 0,0 z"
         style=""
         id="path4236" />
      <path
         d="m 65.39987,306.4085 -7.125074,-11.57512 -0.075,0 0.100001,11.57512 -4.150043,0 0,-17.70018 4.875051,0 7.100074,11.55012 0.075,0 -0.100001,-11.55012 4.150043,0 0,17.70018 -4.850051,0 z"
         style=""
         id="path4238" />
      <path
         d="m 90.40169,297.50841 q 0,2.32502 -0.875009,4.02504 -0.850009,1.67502 -2.275024,2.77503 -1.400014,1.07501 -3.175033,1.60002 -1.775018,0.5 -3.600038,0.5 l -6.600069,0 0,-17.70018 6.400067,0 q 1.87502,0 3.700039,0.45 1.825019,0.42501 3.250034,1.45002 1.425015,1.00001 2.300024,2.70003 0.875009,1.70001 0.875009,4.20004 z m -4.450046,0 q 0,-1.50002 -0.500006,-2.47503 -0.475004,-1.00001 -1.300013,-1.57501 -0.800008,-0.60001 -1.850019,-0.85001 -1.025011,-0.25 -2.125023,-0.25 l -2.125022,0 0,10.3501 2.025021,0 q 1.150012,0 2.200023,-0.25 1.075012,-0.275 1.87502,-0.87501 0.825009,-0.6 1.300013,-1.60001 0.500006,-1.00002 0.500006,-2.47503 z"
         style=""
         id="path4240" />
      <path
         d="m 102.63893,306.4085 -3.825038,-7.02507 -1.450015,0 0,7.02507 -4.200044,0 0,-17.70018 6.75007,0 q 1.275017,0 2.475027,0.275 1.22501,0.25 2.17502,0.87501 0.97501,0.62501 1.55002,1.65002 0.575,1.02501 0.575,2.55002 0,1.80002 -0.97501,3.02503 -0.97501,1.22502 -2.70002,1.75002 l 4.62504,7.57508 -5.00005,0 z m -0.175,-12.27513 q 0,-0.625 -0.275,-1.00001 -0.25001,-0.4 -0.67501,-0.6 -0.4,-0.22501 -0.92501,-0.30001 -0.5,-0.075 -0.97501,-0.075 l -2.275024,0 0,4.12505 2.025022,0 q 0.525005,0 1.075012,-0.075 0.55,-0.10001 1.00001,-0.32501 0.45,-0.225 0.72501,-0.65 0.3,-0.42501 0.3,-1.10002 z"
         style=""
         id="path4242" />
      <path
         d="m 118.07268,298.90842 0,7.50008 -4.27504,0 0,-7.50008 -6.65007,-10.2001 5.17505,0 3.77504,6.55007 3.77504,-6.55007 5.00006,0 -6.80008,10.2001 z"
         style=""
         id="path4244" />
      <path
         d="m 141.23504,293.30837 q -0.55001,-0.70001 -1.45002,-1.10002 -0.87501,-0.425 -1.70001,-0.425 -0.42501,0 -0.87501,0.075 -0.42501,0.075 -0.77501,0.3 -0.35001,0.20001 -0.60001,0.55001 -0.225,0.325 -0.225,0.85001 0,0.45 0.175,0.75001 0.2,0.3 0.55001,0.525 0.375,0.225 0.87501,0.42501 0.5,0.175 1.12501,0.375 0.90001,0.3 1.87502,0.67501 0.97501,0.35 1.77502,0.95001 0.8,0.6 1.32501,1.50001 0.52501,0.87501 0.52501,2.20003 0,1.52501 -0.57501,2.65002 -0.55001,1.10001 -1.50002,1.82502 -0.95001,0.72501 -2.17502,1.07501 -1.22501,0.35001 -2.52503,0.35001 -1.90002,0 -3.67503,-0.65001 -1.77502,-0.67501 -2.95003,-1.90002 l 2.80002,-2.85003 q 0.65001,0.80001 1.70002,1.35001 1.07501,0.52501 2.12502,0.52501 0.47501,0 0.92501,-0.1 0.45001,-0.1 0.77501,-0.325 0.35001,-0.22501 0.55001,-0.60001 0.2,-0.375 0.2,-0.90001 0,-0.50001 -0.25,-0.85001 -0.25001,-0.35 -0.72501,-0.62501 -0.45,-0.3 -1.15001,-0.525 -0.67501,-0.25 -1.55002,-0.52501 -0.85001,-0.275 -1.67502,-0.65 -0.8,-0.37501 -1.45001,-0.95001 -0.62501,-0.60001 -1.02501,-1.42502 -0.37501,-0.85001 -0.37501,-2.05002 0,-1.47501 0.60001,-2.52503 0.60001,-1.05001 1.57502,-1.72501 0.97501,-0.67501 2.20002,-0.97501 1.22501,-0.32501 2.47503,-0.32501 1.50001,0 3.05003,0.55001 1.57501,0.55 2.75003,1.62502 l -2.72503,2.87503 z"
         style=""
         id="path4246" />
      <path
         d="m 161.68017,299.73343 q 0,1.60002 -0.55,2.92503 -0.52501,1.30002 -1.52502,2.25003 -1.00001,0.92501 -2.42503,1.45001 -1.40001,0.52501 -3.12503,0.52501 -1.75002,0 -3.15003,-0.52501 -1.40002,-0.525 -2.37503,-1.45001 -0.97501,-0.95001 -1.50001,-2.25003 -0.52501,-1.32501 -0.52501,-2.92503 l 0,-11.02511 4.25005,0 0,10.67511 q 0,0.72501 0.175,1.37501 0.2,0.65001 0.57501,1.17502 0.4,0.5 1.02501,0.8 0.65,0.30001 1.55001,0.30001 0.90001,0 1.52502,-0.30001 0.65,-0.3 1.05001,-0.8 0.4,-0.52501 0.57501,-1.17502 0.175,-0.65 0.175,-1.37501 l 0,-10.67511 4.27504,0 0,11.02511 0,0 z"
         style=""
         id="path4248" />
      <path
         d="m 180.71241,303.95848 q -1.17502,1.35001 -2.90003,2.15002 -1.72502,0.77501 -3.97504,0.77501 -2.05003,0 -3.80004,-0.67501 -1.72502,-0.67501 -3.00004,-1.90002 -1.27501,-1.25001 -2.00002,-2.97503 -0.725,-1.72502 -0.725,-3.80004 0,-2.12502 0.725,-3.85004 0.75001,-1.72502 2.05002,-2.92503 1.30002,-1.22501 3.05004,-1.87502 1.75001,-0.65001 3.77504,-0.65001 1.87502,0 3.67503,0.67501 1.82502,0.65001 2.95004,1.92502 l -2.90003,2.90003 q -0.60001,-0.82501 -1.57502,-1.22501 -0.97501,-0.40001 -2.00002,-0.40001 -1.12501,0 -2.07502,0.42501 -0.92501,0.4 -1.60002,1.12501 -0.67501,0.72501 -1.05001,1.72502 -0.37501,0.97501 -0.37501,2.15002 0,1.20001 0.37501,2.20002 0.375,1.00001 1.02501,1.72502 0.67501,0.70001 1.60002,1.10001 0.92501,0.40001 2.02502,0.40001 1.27501,0 2.22502,-0.50001 0.95001,-0.5 1.52502,-1.30001 l 2.97503,2.80003 0,0 z"
         style=""
         id="path4250" />
      <path
         d="m 193.34535,306.4085 -6.57507,-8.15008 -0.05,0 0,8.15008 -4.20004,0 0,-17.70018 4.20004,0 0,7.20007 0.075,0 6.32507,-7.20007 5.35006,0 -7.62508,8.15008 8.07508,9.5501 -5.57506,0 z"
         style=""
         id="path4252" />
      <path
         d="m 209.64396,293.30837 q -0.55001,-0.70001 -1.45002,-1.10002 -0.87501,-0.425 -1.70001,-0.425 -0.42501,0 -0.87501,0.075 -0.42501,0.075 -0.77501,0.3 -0.35001,0.20001 -0.60001,0.55001 -0.225,0.325 -0.225,0.85001 0,0.45 0.175,0.75001 0.2,0.3 0.55001,0.525 0.375,0.225 0.87501,0.42501 0.5,0.175 1.12501,0.375 0.90001,0.3 1.87502,0.67501 0.97501,0.35 1.77502,0.95001 0.8,0.6 1.32501,1.50001 0.52501,0.87501 0.52501,2.20003 0,1.52501 -0.57501,2.65002 -0.55001,1.10001 -1.50002,1.82502 -0.95001,0.72501 -2.17502,1.07501 -1.22501,0.35001 -2.52503,0.35001 -1.90002,0 -3.67503,-0.65001 -1.77502,-0.67501 -2.95003,-1.90002 l 2.80002,-2.85003 q 0.65001,0.80001 1.70002,1.35001 1.07501,0.52501 2.12502,0.52501 0.47501,0 0.92501,-0.1 0.45001,-0.1 0.77501,-0.325 0.35001,-0.22501 0.55001,-0.60001 0.2,-0.375 0.2,-0.90001 0,-0.50001 -0.25,-0.85001 -0.25,-0.35 -0.72501,-0.62501 -0.45,-0.3 -1.15001,-0.525 -0.67501,-0.25 -1.55002,-0.52501 -0.85001,-0.275 -1.67502,-0.65 -0.8,-0.37501 -1.45001,-0.95001 -0.62501,-0.60001 -1.02501,-1.42502 -0.37501,-0.85001 -0.37501,-2.05002 0,-1.47501 0.60001,-2.52503 0.60001,-1.05001 1.57502,-1.72501 0.97501,-0.67501 2.20002,-0.97501 1.22501,-0.32501 2.47503,-0.32501 1.50001,0 3.05003,0.55001 1.57501,0.55 2.75003,1.62502 l -2.72503,2.87503 z"
         style=""
         id="path4254" />
      <path
         d="m 219.53898,304.20848 q 0,1.05001 -0.75001,1.75002 -0.725,0.7 -1.75001,0.7 -0.52501,0 -1.00001,-0.2 -0.45001,-0.175 -0.80001,-0.5 -0.35001,-0.32501 -0.55001,-0.75001 -0.2,-0.45 -0.2,-0.97501 0,-0.50001 0.2,-0.95001 0.2,-0.45001 0.55001,-0.77501 0.35,-0.35 0.80001,-0.55 0.475,-0.20001 1.00001,-0.20001 1.02501,0 1.75001,0.70001 0.75001,0.70001 0.75001,1.75002 z"
         style=""
         id="path4256" />
    </g>
  </g>
</svg>
