<?xml version="1.0" encoding="UTF-8" standalone="no"?>
<svg
   xmlns:dc="http://purl.org/dc/elements/1.1/"
   xmlns:cc="http://creativecommons.org/ns#"
   xmlns:rdf="http://www.w3.org/1999/02/22-rdf-syntax-ns#"
   xmlns:svg="http://www.w3.org/2000/svg"
   xmlns="http://www.w3.org/2000/svg"
   xmlns:sodipodi="http://sodipodi.sourceforge.net/DTD/sodipodi-0.dtd"
   xmlns:inkscape="http://www.inkscape.org/namespaces/inkscape"
   id="svg2"
   enable-background="new 0 0 90 90"
   xml:space="preserve"
   height="61.625"
   width="89.184"
   version="1.1"
   y="0px"
   x="0px"
   viewBox="0 0 89.183998 61.625"
   inkscape:version="0.91 r13725"
   sodipodi:docname="load.svg"><defs
     id="defs16" /><sodipodi:namedview
     pagecolor="#ffffff"
     bordercolor="#666666"
     borderopacity="1"
     objecttolerance="10"
     gridtolerance="10"
     guidetolerance="10"
     inkscape:pageopacity="0"
     inkscape:pageshadow="2"
     inkscape:window-width="1409"
     inkscape:window-height="773"
     id="namedview14"
     showgrid="false"
     inkscape:zoom="3.7002154"
     inkscape:cx="44.591999"
     inkscape:cy="30.8125"
     inkscape:window-x="0"
     inkscape:window-y="23"
     inkscape:window-maximized="0"
     inkscape:current-layer="svg2" /><metadata
     id="metadata26"><rdf:RDF><cc:Work
         rdf:about=""><dc:format>image/svg+xml</dc:format><dc:type
           rdf:resource="http://purl.org/dc/dcmitype/StillImage" /><dc:title /></cc:Work></rdf:RDF></metadata><g
     id="g5413"
     transform="translate(-.408 -14.188)"
     style="fill:#337ab7;fill-opacity:1"><path
       id="path4"
       d="m73.779 75.813h-57.471c-2.656 0-4.828-2.111-4.927-4.743l-5.029-29.716c-0.018-0.107-0.026-0.218-0.026-0.328 0-2.717 2.422-4.927 5.398-4.927h66.64c2.979 0 5.4 2.21 5.4 4.927 0 0.11-0.008 0.221-0.027 0.328l-5.032 29.716c-0.1 2.632-2.27 4.743-4.926 4.743zm-63.51-34.893 5.016 29.637c0.019 0.107 0.026 0.218 0.026 0.328 0 0.548 0.448 0.994 0.997 0.994h57.472c0.55 0 0.995-0.446 0.995-0.994 0-0.11 0.01-0.221 0.026-0.328l5.02-29.637c-0.082-0.439-0.658-0.887-1.457-0.887h-66.64c-0.799 0-1.374 0.447-1.455 0.887z"
       style="fill:#337ab7;fill-opacity:1" /><path
       id="path6"
       d="m8.292 51.611h-5.261c-1.448 0-2.623-1.175-2.623-2.623s1.175-2.622 2.623-2.622h5.261c1.447 0 2.622 1.174 2.622 2.622s-1.175 2.623-2.622 2.623z"
       style="fill:#337ab7;fill-opacity:1" /><path
       id="path8"
       d="m86.969 51.611h-5.262c-1.448 0-2.623-1.175-2.623-2.623s1.175-2.622 2.623-2.622h5.262c1.448 0 2.623 1.174 2.623 2.622s-1.175 2.623-2.623 2.623z"
       style="fill:#337ab7;fill-opacity:1" /><path
       id="path10"
       d="m80.452 43.219h-71.139c-0.363 0-0.655-0.293-0.655-0.655s0.292-0.655 0.655-0.655h71.139c0.363 0 0.656 0.293 0.656 0.655s-0.293 0.655-0.656 0.655z"
       style="fill:#337ab7;fill-opacity:1" /><path
       id="path12"
       d="m78.84 49.831h-4.682l1.197-6.669c0.063-0.356-0.174-0.697-0.53-0.761-0.359-0.067-0.697 0.173-0.762 0.529l-1.237 6.9h-7.041-0.797-0.318l0.803-6.706c0.043-0.36-0.214-0.687-0.573-0.729-0.356-0.045-0.687 0.214-0.729 0.573l-0.82 6.862h-8.167l0.403-6.745c0.022-0.361-0.253-0.672-0.615-0.694-0.361-0.006-0.672 0.254-0.693 0.616l-0.408 6.823h-8.17v-6.785c0-0.362-0.293-0.656-0.655-0.656s-0.655 0.294-0.655 0.656v6.785h-8.171l-0.407-6.823c-0.022-0.362-0.331-0.633-0.694-0.616-0.361 0.022-0.637 0.333-0.615 0.694l0.403 6.745h-8.165l-0.82-6.862c-0.043-0.359-0.375-0.612-0.729-0.573-0.359 0.043-0.615 0.369-0.572 0.729l0.802 6.706h-8.157l-1.237-6.9c-0.064-0.356-0.408-0.597-0.762-0.529-0.355 0.063-0.593 0.404-0.529 0.761l1.197 6.669h-4.704c-0.362 0-0.655 0.293-0.655 0.655s0.293 0.655 0.655 0.655h4.938l1.206 6.722h-4.833c-0.362 0-0.655 0.293-0.655 0.655s0.293 0.655 0.655 0.655h5.068l1.132 6.311h-4.835c-0.362 0-0.655 0.293-0.655 0.655s0.293 0.655 0.655 0.655h5.07l1.114 6.21c0.057 0.317 0.333 0.54 0.645 0.54 0.038 0 0.077-0.003 0.116-0.01 0.356-0.064 0.594-0.405 0.529-0.762l-1.072-5.979h7.143l0.738 6.172c0.039 0.334 0.322 0.578 0.649 0.578 0.026 0 0.053-0.002 0.079-0.004 0.359-0.043 0.616-0.369 0.573-0.729l-0.72-6.017h7.15l0.366 6.134c0.021 0.348 0.311 0.616 0.654 0.616 0.014 0 0.026-0.001 0.04-0.002 0.361-0.021 0.637-0.331 0.615-0.693l-0.362-6.055h7.156v6.095c0 0.362 0.293 0.654 0.655 0.654s0.655-0.292 0.655-0.654v-6.095h7.156l-0.362 6.055c-0.022 0.362 0.253 0.673 0.614 0.693 0.014 0.001 0.027 0.002 0.041 0.002 0.344 0 0.633-0.269 0.652-0.616l0.368-6.134h7.151l-0.72 6.017c-0.043 0.36 0.214 0.687 0.574 0.729 0.025 0.002 0.053 0.004 0.078 0.004 0.327 0 0.61-0.244 0.65-0.578l0.738-6.172h6.176 0.965l-1.072 5.979c-0.064 0.356 0.173 0.697 0.529 0.762 0.039 0.007 0.078 0.01 0.117 0.01 0.311 0 0.587-0.223 0.645-0.54l1.114-6.21h5.048c0.361 0 0.654-0.293 0.654-0.655s-0.293-0.655-0.654-0.655h-4.812l1.132-6.311h5.047c0.361 0 0.654-0.293 0.654-0.655s-0.293-0.655-0.654-0.655h-4.812l1.206-6.722h4.917c0.361 0 0.653-0.293 0.653-0.655s-0.292-0.655-0.653-0.655zm-15.648 1.311-0.804 6.722h-7.687l0.401-6.722h8.09zm-9.401 0-0.402 6.722h-7.689v-6.722h8.091zm-9.402 0v6.722h-7.69l-0.401-6.722h8.091zm-9.407 0 0.402 6.722h-7.684l-0.804-6.722h8.086zm-17.485 0h8.078l0.805 6.722h-7.677l-1.206-6.722zm2.573 14.342-1.132-6.311h7.598l0.755 6.311h-7.221zm8.541 0-0.755-6.311h7.606l0.377 6.311h-7.228zm8.543 0-0.377-6.311h7.611v6.311h-7.234zm8.545 0v-6.311h7.611l-0.377 6.311h-7.234zm8.925-6.31h7.607l-0.755 6.311h-7.23l0.378-6.311zm15.393 6.31h-1.199-6.019l0.755-6.311h3.869 3.727l-1.133 6.311zm1.368-7.621h-3.962-3.713l0.804-6.722h0.475 0.797 6.806l-1.207 6.722z"
       style="fill:#337ab7;fill-opacity:1" /><path
       id="path14"
       d="m14.646 38.799c-0.665 0-1.235-0.504-1.303-1.179-0.167-1.648 0.54-2.896 1.056-3.808 0.182-0.321 0.457-0.807 0.458-0.97-1.252-1.715-1.485-4.008-1.508-4.265-0.003-0.038-0.005-0.076-0.005-0.114 0-2.773 2.255-5.028 5.028-5.028h43.695c2.772 0 5.027 2.255 5.027 5.028v2.941c0 0.725-0.587 1.312-1.311 1.312-0.725 0-1.312-0.587-1.312-1.312v-2.941c0-1.327-1.079-2.405-2.405-2.405h-43.693c-1.307 0-2.374 1.047-2.405 2.347 0.061 0.546 0.338 1.982 1.006 2.906 1.039 1.44 0.239 2.856-0.292 3.793-0.417 0.737-0.812 1.434-0.729 2.251 0.072 0.722-0.453 1.364-1.173 1.437-0.045 0.005-0.09 0.007-0.134 0.007z"
       style="fill:#337ab7;fill-opacity:1" /><path
       id="path16"
       d="m54.006 26.059h-34.378c-2.773 0-5.029-2.256-5.029-5.028v-1.816c0-2.771 2.256-5.027 5.029-5.027h34.378c2.771 0 5.027 2.256 5.027 5.027v1.816c0 2.772-2.256 5.028-5.027 5.028zm-34.378-9.249c-1.327 0-2.407 1.078-2.407 2.404v1.816c0 1.326 1.08 2.405 2.407 2.405h34.378c1.326 0 2.404-1.079 2.404-2.405v-1.816c0-1.326-1.078-2.404-2.404-2.404h-34.378z"
       style="fill:#337ab7;fill-opacity:1" /><path
       id="path18"
       d="m25.075 39.377c-0.724 0-1.312-0.588-1.312-1.312v-2.852c0-2.771 2.257-5.026 5.029-5.026h43.342c2.771 0 5.027 2.255 5.027 5.026v2.273c0 0.725-0.588 1.312-1.312 1.312s-1.311-0.587-1.311-1.312v-2.273c0-1.325-1.079-2.404-2.404-2.404h-43.341c-1.326 0-2.406 1.079-2.406 2.404v2.852c0 0.724-0.587 1.312-1.312 1.312z"
       style="fill:#337ab7;fill-opacity:1" /><path
       id="path20"
       d="m57.723 20.777h-36.28c-0.362 0-0.655-0.292-0.655-0.655 0-0.362 0.293-0.655 0.655-0.655h36.28c0.361 0 0.654 0.293 0.654 0.655 0 0.363-0.293 0.655-0.654 0.655z"
       style="fill:#337ab7;fill-opacity:1" /></g></svg>