<?xml version="1.0" encoding="UTF-8" standalone="no"?>
<!-- Created with Inkscape (http://www.inkscape.org/) -->

<svg
   xmlns:dc="http://purl.org/dc/elements/1.1/"
   xmlns:cc="http://creativecommons.org/ns#"
   xmlns:rdf="http://www.w3.org/1999/02/22-rdf-syntax-ns#"
   xmlns:svg="http://www.w3.org/2000/svg"
   xmlns="http://www.w3.org/2000/svg"
   xmlns:sodipodi="http://sodipodi.sourceforge.net/DTD/sodipodi-0.dtd"
   xmlns:inkscape="http://www.inkscape.org/namespaces/inkscape"
   id="svg2"
   height="3.0845709in"
   viewBox="0 0 390.45852 277.61269"
   width="4.3384295in"
   version="1.1"
   inkscape:version="0.91 r13725"
   sodipodi:docname="logo.svg">
  <sodipodi:namedview
     pagecolor="#ffffff"
     bordercolor="#666666"
     borderopacity="1"
     objecttolerance="10"
     gridtolerance="10"
     guidetolerance="10"
     inkscape:pageopacity="0"
     inkscape:pageshadow="2"
     inkscape:window-width="1439"
     inkscape:window-height="847"
     id="namedview28"
     showgrid="false"
     inkscape:zoom="1.6815715"
     inkscape:cx="201.95671"
     inkscape:cy="98.05915"
     inkscape:window-x="2"
     inkscape:window-y="23"
     inkscape:window-maximized="0"
     inkscape:current-layer="svg2"
     units="in"
     fit-margin-top="0"
     fit-margin-left="0"
     fit-margin-right="0"
     fit-margin-bottom="0" />
  <defs
     id="defs30">
    <clipPath
       id="clipPath4340"
       clipPathUnits="userSpaceOnUse">
      <rect
         id="rect4342"
         ry="0.56344998"
         height="284.79999"
         width="392.5"
         y="148.85001"
         x="225.39"
         style="fill:none" />
    </clipPath>
  </defs>
  <metadata
     id="metadata8">
    <rdf:RDF>
      <cc:Work
         rdf:about="">
        <dc:format>image/svg+xml</dc:format>
        <dc:type
           rdf:resource="http://purl.org/dc/dcmitype/StillImage" />
        <dc:title></dc:title>
      </cc:Work>
    </rdf:RDF>
  </metadata>
  <g
     transform="matrix(0.99997987,0,0,0.99997981,-11.716574,2.017944)"
     id="g4393">
    <g
       id="g5">
      <path
         style="fill:#ffffff;fill-opacity:1;stroke:#0a2a53;stroke-width:6.30000019"
         d="M 103.68,270.65 C 88.719,269.05 87.507,263.08 81.154,258.08 L 67.503,211.39 67.549,46.13 C 67.4,3.653 94.622,2.975 107.5,2.394 L 310.6,1.1328 c 10.299,-0.095472 35.726,9.1405 34.902,50.041 l 0.84101,148.02 0,71.508 z"
         id="path4168-5"
         inkscape:connector-curvature="0" />
      <path
         d="M 399.75,273.2 14.15,272.36"
         id="path4166-2"
         inkscape:connector-curvature="0"
         style="fill:none;stroke:#0a2a53;stroke-width:4.80000019;stroke-linecap:round" />
    </g>
    <g
       id="g12"
       style="fill-rule:evenodd;stroke:#0a2a53">
      <path
         d="m 58.719,272.57 c -8.3767,-1.3772 -15.913,-5.1566 -20.395,-17.661 -0.59625,-8.9525 0.17017,-19.949 0.63076,-30.487 2.102,-21.207 41.114,-31.454 51.092,-1.8923 1.4329,11.708 1.0983,22.276 0.84102,31.118 -1.6576,11.122 -7.933,14.937 -15.138,18.292 z"
         id="path4158-1"
         inkscape:connector-curvature="0"
         style="fill:#fca80b;stroke-width:3.5999999" />
      <path
         sodipodi:nodetypes="cccccc"
         inkscape:connector-curvature="0"
         style="fill:#ffffff;stroke-width:2.80007005;stroke-linejoin:round;stroke-miterlimit:4;stroke-dasharray:none"
         d="m 77.642,228.42 c -4.723597,3.19367 -5.0949,8.5695 -5.2564,13.877 0.77377,6.4713 1.7298,12.651 5.2564,14.718 3.4796,-2.0347 5.2068,-7.2239 5.8871,-14.297 0.02076,-2.90324 0.03466,-8.83148 -5.8871,-14.297 z"
         id="path4160-4" />
      <path
         d="m 55.249,198.82 0,4.8884 16.925,0 0,-4.8884 z"
         id="path4162-8"
         inkscape:connector-curvature="0"
         style="fill:#fca80b;stroke-width:2" />
      <path
         d="m 59.77,198.77 8.0948,0 0,-3.9423 c -3.0312,-2.3128 -5.7119,-2.3128 -8.0422,0 z"
         id="path4164-8"
         inkscape:connector-curvature="0"
         style="fill:#4fd1f3;stroke-width:2" />
    </g>
    <g
       id="g18"
       style="fill:none;stroke:#0a2a53;stroke-width:6.30000019">
      <path
         d="m 67.45,77.048 79.99,-0.297"
         id="path4170-6"
         inkscape:connector-curvature="0" />
      <path
         d="M 178.21,77.345 345.62,76.899"
         id="path4172-8"
         inkscape:connector-curvature="0" />
      <path
         style="fill:#ffffff;fill-opacity:1"
         d="m 104.47,29.324 44.75,0 c 16.202,-0.28638 17.09,28.908 0,28.545 l -44.899,0 c -15.4,0.233 -16.311,-28.602 0.15,-28.545 z"
         id="path4174-0"
         inkscape:connector-curvature="0" />
    </g>
    <g
       id="g23"
       style="fill:#ffffff">
      <g
         id="g25">
        <circle
           r="16.641001"
           cy="43.448002"
           cx="263.10001"
           id="path4176-1"
           style="stroke:#0a2a53;stroke-width:5.1170001;stroke-linecap:round;stroke-linejoin:round" />
        <circle
           r="16.641001"
           cy="43.744999"
           cx="312.45999"
           id="ellipse4178-9"
           style="stroke:#0a2a53;stroke-width:5.1170001;stroke-linecap:round;stroke-linejoin:round" />
        <circle
           cx="206.74001"
           cy="160.92999"
           id="path4180-4"
           r="59.820999" />
      </g>
      <path
         d="m 315.65,269.42 c -4.9611,0.28922 -9.2032,-0.67979 -9.4614,-8.6204 l 0,-52.353 c 0.19896,-5.6439 1.8492,-9.7328 7.5692,-9.4615 21.025,3.7732 42.051,2.0638 63.076,0 3.1932,-0.31372 6.0306,0.3068 6.0974,8.1999 l 0,54.876 c 0.3218,5.7259 -4.7799,7.3964 -7.6246,7.2357 z"
         id="path4182-2"
         inkscape:connector-curvature="0"
         style="fill-rule:evenodd;stroke:#0a2a53;stroke-width:6.19999981" />
    </g>
    <path
       d="m 306.22,215.16 76.566,-1.0407"
       id="path4184-5"
       inkscape:connector-curvature="0"
       style="fill:none;stroke:#0a2a53;stroke-width:5.0999999" />
    <g
       id="g32">
      <circle
         cx="206.78"
         cy="160.82001"
         id="circle4453-4"
         r="58.595001"
         style="fill:#4fd5f8;stroke:#0a2a53;stroke-width:6.68510008;stroke-linejoin:round" />
      <path
         d="m 179.01,208.02 c 37.396,-9.7184 73.472,-21.096 67.121,-85.789 16.264,16.889 21.616,44.732 7.3413,67.75 -19.946,32.374 -59.961,29.125 -74.462,18.039 z"
         id="path4455-0"
         inkscape:connector-curvature="0"
         style="fill:#95e5fa;fill-rule:evenodd;stroke-width:0" />
      <path
         d="m 58.929,270.68 c -9.1682,-0.0791 -17.807,-9.9637 -18.765,-16.505 -0.2344,-1.6 0.21664,-28.194 0.47307,-28.279 1.2149,-11.896 10.134,-17.895 22.077,-19.869 -12.469,13.946 -23.917,28.585 -3.7846,64.653 z"
         id="path4500-4"
         inkscape:connector-curvature="0"
         style="fill:#fcc254;fill-rule:evenodd;stroke-width:0" />
    </g>
  </g>
</svg>
