<?xml version="1.0" encoding="UTF-8" standalone="no"?>
<!-- Created with Inkscape (http://www.inkscape.org/) -->
<svg id="svg2" xmlns:rdf="http://www.w3.org/1999/02/22-rdf-syntax-ns#" xmlns="http://www.w3.org/2000/svg" height="1279.8" viewBox="0 0 1280.0856 1279.8416" width="1280.1" version="1.1" xmlns:cc="http://creativecommons.org/ns#" xmlns:dc="http://purl.org/dc/elements/1.1/">
 <metadata id="metadata8">
  <rdf:RDF>
   <cc:Work rdf:about="">
    <dc:format>image/svg+xml</dc:format>
    <dc:type rdf:resource="http://purl.org/dc/dcmitype/StillImage"/>
    <dc:title/>
   </cc:Work>
  </rdf:RDF>
 </metadata>
 <g id="g4146" transform="translate(-8.2885 .0049957)">
  <g id="g4164">
   <rect id="rect4162" ry="8.3162" height="1147.2" width="966.67" y="79.837" x="186.07" stroke-width="0" fill="#fff"/>
   <path id="path4148" d="m147.83 1278.9c-59.51-4.8-111.86-46-130.95-103.1-4.6027-13.755-6.2656-22.031-7.5131-37.394-1.4414-17.75-1.4382-979.16 0-997.06 3.1351-38.82 18.875-71.821 47.227-98.922 25.375-24.254 57.386-38.461 93.136-41.34 16.872-1.3585 978.79-1.4063 996.23-0.04951 38.473 2.9928 69.957 17.433 96.908 44.447 26.947 27.01 41.385 58.196 44.425 95.96 1.4415 17.902 1.4446 979.31 0 997.06-1.2498 15.391-2.9093 23.634-7.5523 37.516-7.1525 21.384-18.096 39.42-33.913 55.89-18.393 19.154-37.98 31.704-61.856 39.633-13.254 4.4015-23.164 6.3608-38.016 7.5161-14.958 1.1635-983.71 1.0666-998.13-0.1zm858.47-526.36c0-358.98 0-359.47-2.0334-364.9-3.6824-9.8421-12.657-17.868-22.967-20.539-3.3931-0.87904-85.181-1.0964-332.5-0.88384l-328 0.28196-5.5457 2.6011c-7.9149 3.7124-12.437 8.1035-16.184 15.713l-3.2705 6.6434-0.2568 360.27-0.2568 360.27h355.51 355.51v-359.46zm-376.97 195.84c-81.768-7.4925-150.53-54.158-186.47-126.55-31.305-63.055-31.524-137.96-0.588-201.33 29.601-60.638 83.299-104.4 148.41-120.95 20.766-5.279 34.36-6.9461 56.643-6.9461 37.02 0 69.206 7.4965 101.43 23.624 22.25 11.136 41.75 25.026 58.578 41.724 34.56 34.294 56.674 76.512 64.982 124.05 2.7652 15.825 3.771 44.989 2.107 61.096-10.818 104.72-89.386 187.28-193.59 203.43-9.7259 1.5072-42.445 2.6873-51.5 1.8576zm37.857-42.404c36.248-3.818 70.47-17.678 99.643-40.356 9.6671-7.5149 26.117-24.354 34.065-34.871 22.04-29.165 34.346-60.57 38.386-97.963 1.4415-13.343 1.3157-24.022-0.4619-39.218-1.3005-11.118-5.0027-30.261-6.0843-31.461-0.1934-0.21459-2.8658 1.508-5.9386 3.8279-24.808 18.73-59.413 18.278-82.686-1.0802l-4.7201-3.9262-3.0813 2.7843c-5.32 4.8071-15.13 10.241-23.457 12.993-6.8833 2.2747-9.7232 2.6507-20.021 2.6507-10.291 0-13.14-0.37665-20-2.644-8.3988-2.7758-18.183-8.1186-22.638-12.361l-2.6375-2.5122-4.7045 3.5911c-20.825 15.896-47.104 18.787-70.02 7.703-4.4-2.1281-9.7172-5.2535-11.816-6.9454l-3.8159-3.0762-4.6841 3.5956c-10.13 7.76-26.4 13.28-39.19 13.28-16.167 0-34.032-7.1425-45.648-18.249l-4.1477-3.9662-1.5335 5.3578c-5.1363 17.946-7.0671 35.556-6.388 58.261 0.7682 25.679 4.2898 42.575 13.711 65.781 26.331 64.855 87.137 110.83 157.01 118.71 10.642 1.2003 29.889 1.2403 40.857 0.0851zm340.91-647.73l-0.2805-58.75-2.8855-6.2475c-3.3028-7.1512-9.4612-13.367-16.439-16.592l-4.6756-2.1609h-330.52-330.52l-6.687 3.292c-7.2726 3.5803-12.352 8.6963-16.016 16.132-2.2524 4.5708-2.255 4.6367-2.5351 63.826l-0.2804 59.25h355.56 355.56l-0.2807-58.75zm-613.28 21.861c-6.2789-1.6989-10.628-4.1505-15.579-8.7809-6.0473-5.6565-9.5373-12.058-10.734-19.687-2.4178-15.418 4.9719-29.965 18.957-37.317 4.7792-2.5126 6.3784-2.8162 14.856-2.8204 8.1515-0.004 10.281 0.36344 15 2.5895 7.0138 3.3084 13.597 9.8919 16.906 16.906 2.2244 4.7158 2.5944 6.8546 2.5944 15 0 8.522-0.3016 10.095-2.929 15.281-3.518 6.943-10.803 14.028-17.312 16.836-5.2003 2.2435-16.881 3.314-21.759 1.9941zm104 0c-6.2789-1.6989-10.628-4.1505-15.579-8.7809-6.0473-5.6565-9.5373-12.058-10.734-19.687-2.4178-15.418 4.9719-29.965 18.957-37.317 4.7792-2.5126 6.3784-2.8162 14.856-2.8204 8.1961-0.004 10.255 0.35543 15 2.62 7.0429 3.3612 13.58 9.8922 16.892 16.875 2.2435 4.7311 2.6075 6.8281 2.6033 15 0 8.4493-0.3122 10.085-2.785 14.786-6.3878 12.145-16.598 19.1-29 19.755-3.9653 0.20955-8.5596 0.0157-10.21-0.43073z" fill="#337ab7"/>
  </g>
 </g>
</svg>
