<?xml version="1.0" encoding="UTF-8" standalone="no"?>
<!-- Created with Inkscape (http://www.inkscape.org/) -->
<svg id="svg2" xmlns:rdf="http://www.w3.org/1999/02/22-rdf-syntax-ns#" xmlns="http://www.w3.org/2000/svg" height="1.0476in" width="10.302in" version="1.1" xmlns:cc="http://creativecommons.org/ns#" xmlns:dc="http://purl.org/dc/elements/1.1/" viewBox="0 0 927.14293 94.285707">
 <metadata id="metadata7">
  <rdf:RDF>
   <cc:Work rdf:about="">
    <dc:format>image/svg+xml</dc:format>
    <dc:type rdf:resource="http://purl.org/dc/dcmitype/StillImage"/>
    <dc:title/>
   </cc:Work>
  </rdf:RDF>
 </metadata>
 <g id="layer1" transform="translate(-47.143 -508.08)">
  <rect id="rect4144" ry="8.3162" height="94.286" width="927.14" y="508.08" x="47.143" fill="none"/>
  <g id="flowRoot4136" transform="translate(0 287.36)">
   <path id="path4243" d="m63.082 304.93v-15.7h4.2v-38.5h-4.2v-15.8h27.6v15.8h-4.2v38.5h12.6v-4.2h15.8v19.9h-51.8zm50.1-1.7v-16.4h-12.4v4.1h-16.1v-41.9h4.3v-12.4h-24.2v12.4h4.2v41.8h-4.1v12.4h48.3zm-46.2-2.2v-8h4.1v-46.2h-4.1v-8h19.9v8h-4.2v46.2h20.2v-4.2h8.1v12.2h-44z"/>
   <path id="path4245" d="m118.65 304.93v-15.7h4.2l12.8-38.5h-3.1v-15.8h37.2v15.8h-3.5l12.8 38.5h4.1v15.7h-26.8v-15.7h2.4l-1.1-3.3h-13.4l-1.2 3.3h2.4v15.7h-26.8zm25.1-1.7v-12.4h-2.6l1.6-6.5h16.4l1.5 6.5h-2.6v12.4h23.5v-12.4h-4l-13.4-41.8h3.9v-12.4h-33.8v12.4h3.4l-13.4 41.8h-3.9v12.4h23.4zm-21.2-2.2v-8h3l15.3-46.2h-4.4v-8h29.5v8h-4.9l15.3 46.2h3v8h-19.1v-8h3.8l-3.6-10.9h-19.1l-3.6 10.9h3.8v8h-19zm35.9-24.7-7.5-22.8-7.7 22.8h15.2zm-11.8-2 4.3-13.9 4.2 13.9h-8.5zm6.6-1.8-2.3-6.7-2.3 6.7h4.6z"/>
   <path id="path4247" d="m189.08 250.73v-15.8h27.6v15.8h-4.2v36.3l2.2 2.2h10.3l2.2-2.2v-36.3h-4.2v-15.8h27.7v15.8h-4.3v43l-11.1 11.2h-30.8l-11.2-11.2v-43h-4.2zm5.8-1.7v44.3l9.9 9.9h30.2l9.8-9.8v-44.4h4.1v-12.4h-24.2v12.4h4.3v38.3l-3.6 3.5h-11l-3.6-3.6v-38.2h4.2v-12.4h-24.2v12.4h4.1zm-1.9-2.2v-8h19.9v8h-4.2v41.9l4.3 4.3h13.7l4.4-4.4v-41.8h-4.2v-8h19.9v8h-4.2v45l-9.2 9.2h-27l-9.3-9.3v-44.9h-4.1z"/>
   <path id="path4249" d="m256.99 304.93v-15.7h4.2v-38.5h-4.2v-15.8h22.7l19.3 32.1v-16.3h-4.2v-15.8h27.6v15.8h-4.2v38.5h4.2v15.7h-23.1l-18.9-31.3v15.6h4.2v15.7h-27.6zm25.9-1.6v-12.5h-4.2v-23.2l21.4 35.7h20.6v-12.5h-4.2v-41.8h4.2v-12.4h-24.2v12.4h4.2v23.9l-21.8-36.3h-20.2v12.4h4.1v41.8h-4.1v12.5h24.2zm-22-2.3v-8h4.1v-46.2h-4.1v-8h16.1l25.9 43v-35h-4.3v-8h20v8h-4.3v46.2h4.3v8h-16.7l-25.3-42.2v34.2h4.2v8h-19.9z"/>
   <path id="path4251" d="m325.94 304.93v-15.7h4.2v-38.5h-4.2v-15.8h43.3l11.2 11.2v47.6l-11.2 11.2h-43.3zm42.6-1.7 10.2-10.2v-46.2l-10.2-10.2h-40.9v12.4h4.1v41.8h-4.1v12.4h40.9zm-38.7-2.2v-8h4.1v-46.2h-4.1v-8h37.5l9.2 9.2v43.8l-9.2 9.2h-37.5zm30.9-8 4.3-4.3v-37.6l-4.3-4.3h-15.2v46.2h15.2zm-13.1-2.2v-41.8h12l3.3 3.3v34.9l-3.6 3.6h-11.7zm11.3-1.6 2.3-2.3v-34l-2.2-2.2h-9.7v38.5h9.6z"/>
   <path id="path4253" d="m385.43 304.93v-15.7h4.2v-38.5h-4.2v-15.8h43.3l11.2 11.2v18l-4.6 4.5 4.6 4.6v16h4.2v15.7h-23.4v-26.3l-2.2-2.1h-9.7v12.7h4.2v15.7h-27.6zm25.9-1.7v-12.4h-4.2v-16h12.2l3.1 3.1v25.3h19.9v-12.4h-4.1v-16.9l-5.3-5.4 5.3-5.4v-16.3l-10.2-10.2h-40.9v12.4h4.1v41.8h-4.1v12.4h24.2zm-22-2.2v-8h4.1v-46.2h-4.1v-8h37.6l9.1 9.2v14.1l-6.3 6.4 6.3 6.4v18.1h4.2v8h-15.7v-24l-4.3-4.3h-15.2v20.3h4.2v8h-19.9zm30.8-36.3 4.4-4.4v-9.3l-4.3-4.2h-15.2v17.9h15.1zm-13-2.2v-13.5h11.7l3.6 3.6v6.4l-3.6 3.5h-11.7zm11.3-1.7 2.3-2.2v-5.6l-2.3-2.3h-9.6v10.1h9.6z"/>
   <path id="path4255" d="m445.47 250.73v-15.8h33.2v15.8h-0.6l6.3 6.2 6.3-6.2h-0.8v-15.8h32.3v15.8h-5.7l-22.6 22.6v15.9h4.2v15.7h-27.5v-15.7h4.1v-15.9l-22.6-22.6h-6.6zm7.3-1.7 23.6 23.6v18.2h-4.2v12.5h24.3v-12.5h-4.3v-18.2l23.7-23.6h4.6v-12.4h-28.9v12.4h3.1l-10.3 10.3-10.3-10.3h2.9v-12.4h-29.8v12.4h5.6zm-3.4-2.2v-8h25.4v8h-6.1l15.6 15.6 15.6-15.6h-6.1v-8h24.6v8h-3.2l-25.1 24.9v21.3h4.2v8.8h-19.9v-8.8h4.2v-21.3l-25-24.9h-4.2z"/>
   <path id="path4257" d="m558.23 293.73v-13.4h19.2v6.6l2.4 2.3h10l2.3-2.2v-6.9l-2.2-2.1h-20.5l-11.2-11.2v-20.7l11.2-11.2h30.8l11.2 11.2v13.8h-19.3v-7l-2.2-2.2h-10.4l-2.1 2.2v7.1l2.2 2.2h20.6l11.2 11.2v20.3l-11.2 11.2h-30.8l-11.2-11.2zm11.7 9.5h29.8l10-9.9v-19.6l-9.9-9.8h-20.6l-3.4-3.5v-7.9l3.4-3.5h11.1l3.5 3.5v5.7h15.9v-11.7l-9.9-9.9h-30l-9.9 9.9v19.9l9.9 9.9h20.5l3.5 3.4v7.6l-3.6 3.5h-10.9l-3.5-3.5v-5.3h-15.9v11.3l10 9.9zm-7.8-11.4v-7.7h11.5v4.6l4.3 4.3h13.8l4.3-4.4v-10l-4.4-4.5h-20.2l-9.3-9.3v-16.8l9.2-9.2h27l9.3 9.4v7.9h-11.6v-4.8l-4.4-4.5h-13.7l-4.3 4.3v10.6l4.3 4.3h20.4l9.3 9.4v16.4l-9.1 9.2h-27.3l-9.1-9.2z"/>
   <path id="path4259" d="m615.13 304.93v-15.7h4.2v-38.5h-4.2v-15.8h51.4v18.6h-15.7v-2.8h-12.3v11.3h2.8v-2.7h15.8v21.2h-15.8v-2.7h-2.8v11.4h12.3v-2.9h15.7v18.6h-51.4zm49.7-1.7v-15.2h-12.4v2.8h-15.6v-14.8h6.2v2.8h12.4v-17.8h-12.4v2.8h-6.2v-14.8h15.6v2.8h12.4v-15.2h-48v12.4h4.1v41.8h-4.1v12.4h48zm-45.8-2.2v-8h4.1v-46.2h-4.1v-8h43.7v10.8h-8.1v-2.8h-19.9v19.1h10.5v-2.8h8v13.6h-8v-2.8h-10.5v19.1h19.9v-2.8h8.1v10.8h-43.7z"/>
   <path id="path4261" d="m672.25 304.93v-15.7h4.2v-38.5h-4.2v-15.8h43.3l11.2 11.2v18l-4.6 4.5 4.6 4.6v16h4.2v15.7h-23.4v-26.3l-2.2-2.1h-9.7v12.7h4.2v15.7h-27.6zm25.9-1.7v-12.4h-4.2v-16h12.2l3.1 3.1v25.3h19.9v-12.4h-4.1v-16.9l-5.3-5.4 5.3-5.4v-16.3l-10.2-10.2h-40.9v12.4h4.1v41.8h-4.1v12.4h24.2zm-22-2.2v-8h4.1v-46.2h-4.1v-8h37.6l9.1 9.2v14.1l-6.3 6.4 6.3 6.4v18.1h4.2v8h-15.7v-24l-4.3-4.3h-15.2v20.3h4.2v8h-19.9zm30.8-36.3 4.4-4.4v-9.3l-4.3-4.2h-15.2v17.9h15.1zm-13-2.2v-13.5h11.7l3.6 3.6v6.4l-3.6 3.5h-11.7zm11.3-1.7 2.3-2.2v-5.6l-2.3-2.3h-9.6v10.1h9.6z"/>
   <path id="path4263" d="m735.92 250.73v-15.8h28.2v15.8h-2.4l7.8 23.3 7.8-23.3h-2.3v-15.8h28.9v15.8h-6.2l-12.8 38.5h3.6v15.7h-37.3v-15.7h3.1l-12.8-38.5h-5.6zm6.1-1.7 14.2 41.8h-3.3v12.4h33.9v-12.4h-3.9l14.3-41.8h5.1v-12.4h-25.6v12.4h2.6l-9.8 28.2-9.7-28.2h2.6v-12.4h-24.8v12.4h4.4zm-2.2-2.2v-8h20.5v8h-3.9l13.1 39.5 13.2-39.5h-3.8v-8h21.2v8h-5.1l-15.4 46.2h5v8h-29.6v-8h4.5l-15.4-46.2h-4.3z"/>
   <path id="path4265" d="m812.4 304.93v-15.7h4.2v-38.5h-4.2v-15.8h27.6v15.8h-4.2v38.5h4.2v15.7h-27.6zm25.9-1.7v-12.3h-4.3v-41.9h4.3v-12.4h-24.2v12.4h4.2v41.9h-4.2v12.3h24.2zm-22-2.2v-8h4.1v-46.2h-4.1v-8h19.9v8h-4.2v46.2h4.2v8h-19.9z"/>
   <path id="path4267" d="m844.95 293.73v-47.6l11.2-11.2h30.8l11.2 11.2v15.6h-19.3v-8.8l-2.2-2.2h-10.3l-2.2 2.2v34l2.3 2.3h10.2l2.2-2.2v-8.4h19.3v15.1l-11.2 11.2h-30.8l-11.2-11.2zm11.9 9.5h29.7l9.9-9.9v-13.1h-15.9v7.1l-3.5 3.5h-11l-3.5-3.5v-34.8l3.5-3.5h11l3.5 3.5v7.7h15.9v-13.7l-10-10h-29.9l-9.9 10v46.5l10.2 10.2zm-8-11.4v-43.8l9.2-9.2h27.1l9.2 9.2v9.9h-11.6v-6.7l-4.4-4.4h-13.7l-4.3 4.3v37.6l4.3 4.3h13.7l4.4-4.4v-6.3h11.8v9.5l-9.2 9.2h-27.3l-9.2-9.2z"/>
   <path id="path4269" d="m908.2 304.93v-15.7h4.2v-38.5h-4.2v-15.8h51.4v18.6h-15.7v-2.8h-12.3v11.3h2.8v-2.7h15.8v21.2h-15.8v-2.7h-2.8v11.4h12.3v-2.9h15.7v18.6h-51.4zm49.7-1.7v-15.2h-12.4v2.8h-15.6v-14.8h6.2v2.8h12.4v-17.8h-12.4v2.8h-6.2v-14.8h15.6v2.8h12.4v-15.2h-48v12.4h4.1v41.8h-4.1v12.4h48zm-45.8-2.2v-8h4.1v-46.2h-4.1v-8h43.7v10.8h-8.1v-2.8h-19.9v19.1h10.5v-2.8h8v13.6h-8v-2.8h-10.5v19.1h19.9v-2.8h8.1v10.8h-43.7z"/>
  </g>
 </g>
</svg>
