<?xml version="1.0" encoding="UTF-8" standalone="no"?>
<!-- Created with Inkscape (http://www.inkscape.org/) -->
<svg id="svg2" xmlns:rdf="http://www.w3.org/1999/02/22-rdf-syntax-ns#" xmlns="http://www.w3.org/2000/svg" height="41.849mm" width="221.55mm" version="1.1" xmlns:cc="http://creativecommons.org/ns#" xmlns:dc="http://purl.org/dc/elements/1.1/" viewBox="0 0 785.03553 148.28223">
 <metadata id="metadata7">
  <rdf:RDF>
   <cc:Work rdf:about="">
    <dc:format>image/svg+xml</dc:format>
    <dc:type rdf:resource="http://purl.org/dc/dcmitype/StillImage"/>
    <dc:title/>
   </cc:Work>
  </rdf:RDF>
 </metadata>
 <g id="layer1" transform="translate(-104.52 -215.31)">
  <g id="g4242">
   <path id="path4246" fill="#2b5580" d="m798.54 363.08c-21.805-3.4869-35.038-15.744-41.099-38.071-2.4144-8.8929-2.4759-35.284-0.10733-46.003 4.0728-18.43 10.708-31.132 22.206-42.512 13.941-13.798 27.644-19.316 50.098-20.176 32.807-1.2562 51.609 10.839 58.202 37.441 2.4469 9.8735 2.2412 31.818-0.41488 44.263-7.0664 33.109-26.918 55.859-55.012 63.044-8.5144 2.1776-26.252 3.2318-33.873 2.0131zm27.564-40.659c6.6356-5.9949 10.768-17.249 12.994-35.385 2.0437-16.655 0.74989-26.47-4.1326-31.352-2.6198-2.6198-3.4236-2.871-7.8314-2.4474-12.258 1.1779-19.329 14.133-22.057 40.415-1.5762 15.183-0.1264 24.372 4.5897 29.088 2.746 2.746 4.0089 3.271 7.8682 3.271 3.8709 0 5.2246-0.56691 8.5693-3.5886zm-536.84 39.115c-20.131-4.5815-33.499-17.719-38.692-38.027-2.3788-9.3026-2.3734-29.863 0.0107-40.939 4.1931-19.479 11.615-33.747 24.009-46.154 13.736-13.751 30.628-20.407 51.789-20.407 16.114 0 27.002 4.1167 35.51 13.425 6.6571 7.2839 8.7424 13.27 8.7424 25.096 0 8.1708-0.30869 9.6484-3.2741 15.672-8.23 16.716-30.292 28.002-60.009 30.698-5.1056 0.46304-9.5324 1.0914-9.8374 1.3963-0.30494 0.30494-0.0276 3.0922 0.61632 6.1939 1.1668 5.6203 5.0528 11.405 9.1268 13.585 8.887 4.7562 31.638 1.5888 48.103-6.6969l4.7259-2.3782-0.48918 2.7546c-0.87063 4.9029-5.4626 36.291-5.4626 37.34 0 1.4332-5.9386 3.7475-17 6.625-12.143 3.1588-37.708 4.1288-47.869 1.8162zm26.181-88.66c10.62-3.5254 15.688-8.3183 15.688-14.836 0-4.4634-1.627-6.9762-5.5889-8.6316-9.5169-3.9764-23.032 7.0601-26.265 21.447-0.50119 2.2307-0.63603 4.331-0.29963 4.6674 0.94947 0.94947 10.029-0.51004 16.466-2.6468zm-189.25 80.384c-0.61642-3.7125-5.777-34.425-11.468-68.25s-10.286-61.579-10.212-61.674c0.0745-0.096 11.267-1.2359 24.873-2.5331l24.738-2.3586 0.51583 3.0331c0.6615 3.8897 11.493 91.025 11.493 92.456 0 2.8203 2.0734 0.29182 6.7209-8.1962 7.253-13.247 14.108-29.731 16.884-40.605 3.584-14.035 3.2293-25.188-1.2471-39.211-0.42675-1.3368 3.0742-2.305 22.052-6.0983l22.559-4.5092 1.4694 2.2425c6.4502 9.8442 7.8394 30.203 3.252 47.655-6.1912 23.554-22.828 54.346-47.033 87.049l-5.736 7.75h-28.87-28.87l-1.1208-6.75zm249.53 4c0.29915-1.5125 5.3815-33.35 11.294-70.75l10.75-68 21.181-0.26989 21.181-0.26989v5.6032c0 3.0818 0.3375 5.4532 0.75 5.2699 0.4125-0.18333 5.025-2.4812 10.25-5.1063 12.06-6.0592 21.13-8.0311 34.5-7.5011 11.856 0.46999 18.622 2.9524 23.866 8.7575 9.0606 10.029 8.8439 20.551-1.7815 86.517-4.1638 25.85-7.5737 47.338-7.5775 47.75-0.004 0.4125-11.041 0.75-24.526 0.75h-24.519l0.49617-2.25c0.48469-2.1979 12.765-80.602 14.094-89.987 0.36909-2.6055 0.38932-5.8598 0.045-7.2318-0.93345-3.7191-5.8374-5.8701-11.479-5.0348-6.9258 1.0254-14.059 4.3819-14.626 6.8827-0.26486 1.1666-3.6362 22.596-7.492 47.621-3.8557 25.025-7.2417 46.512-7.5243 47.75l-0.51383 2.25h-24.456-24.456l0.5439-2.75zm149.99 0c0.29298-1.5125 5.3626-33.35 11.266-70.75l10.733-68h20.959 20.959l0.26994 3.5c0.14847 1.925 0.49791 4.5259 0.77653 5.7798l0.50659 2.2798 4.5019-3.0974c11.253-7.7424 24.294-11.38 38.445-10.725 11.738 0.54386 17.686 2.9392 24.001 9.6649l4.5008 4.7939 8.4992-4.8792c11.736-6.7371 19.14-8.8955 32.778-9.5541 15.808-0.76347 22.763 1.1436 29.769 8.1632 10.389 10.41 10.39 17.442 0.0141 82.574-4.1621 26.125-7.8268 48.738-8.1438 50.25l-0.57635 2.75h-24.232-24.232l7.2772-45.75c4.0025-25.162 7.2924-47.613 7.311-49.889 0.0523-6.4252-2.5136-8.886-9.1296-8.7554-2.9352 0.0579-7.8397 1.0712-10.899 2.2516l-5.5622 2.1462-5.2642 33.748c-2.8953 18.562-6.4197 41.061-7.8321 49.998l-2.5679 16.25h-24.464-24.464l0.53886-2.25c0.29637-1.2375 3.792-23.021 7.768-48.408 7.9332-50.653 7.94-50.845 1.8815-53.354-5.4653-2.2638-20.528 2.2169-21.484 6.3906-0.26706 1.1666-3.6492 22.596-7.5159 47.621s-7.2508 46.512-7.5202 47.75l-0.48984 2.25h-24.456-24.456l0.5327-2.75z"/>
  </g>
  <g id="g4191" transform="translate(-11.429 200)">
   <path id="path4193" fill="#3e93cf" d="m848.71 885.86c-4.3838-0.68154-4.4096-0.70651-1-0.96671 3.2433-0.2475 3.1332-0.32864-1.5-1.1062-19.722-3.3096-32.564-15.175-38.167-35.266-2.0718-7.428-2.8237-28.421-1.4026-39.161 1.4322-10.824 5.8934-24.679 10.745-33.368 4.7664-8.5374 16.191-20.374 24.27-25.145 3.6056-2.1293 10.156-5.1236 14.556-6.6541 7.5182-2.6151 9.0238-2.7842 25-2.8078 15.181-0.0224 17.712 0.22096 23.653 2.2741 15.497 5.3556 25.106 15.832 29.274 31.917 0.86551 3.3401 1.6375 7.583 1.7156 9.4286 0.13964 3.3022 0.15217 3.292 0.78691-0.64435 1.1507-7.1358 2.3398 10.118 1.4259 20.69-0.71832 8.31-0.87181 8.8264-1.4295 4.8096l-0.62482-4.5-0.1502 3.7922c-0.24921 6.2921-3.1505 18.751-6.2194 26.708-10.062 26.086-29.354 42.846-54.564 47.4-5.805 1.0486-6.9492 1.4795-4.3664 1.6443 3.1473 0.20084 2.9961 0.30183-1.5 1.0021-5.9841 0.93206-14.329 0.91333-20.5-0.046zm24.634-36.919c8.702-5.3062 14.057-18.899 16.382-41.581 1.8755-18.3-0.65645-29.198-7.4426-32.034-4.7933-2.0028-8.1655-1.8421-13.278 0.63266-11.198 5.421-17.848 25.365-17.114 51.329 0.28516 10.083 0.77511 13.826 2.1424 16.366 3.6209 6.7288 12.816 9.2466 19.31 5.2872zm-522.34 36.176c3.7354-0.19293 9.5854-0.19149 13 0.003 3.4146 0.19468 0.35841 0.35253-6.7916 0.35078-7.15-0.002-9.9438-0.16103-6.2084-0.35396zm-12.917-2.7488c-14.63-3.18-26.92-12.51-32.79-24.89-10.67-22.49-7.6918-56.302 7.2295-82.069 4.6728-8.0692 19.068-22.208 26.699-26.223 12.289-6.4657 18.407-7.8296 35-7.8021 13.277 0.022 15.661 0.28871 20.752 2.3226 9.0086 3.5987 15.039 8.9675 18.914 16.838 3.0711 6.2383 3.3338 7.5223 3.3331 16.293-0.00088 11.222-1.7956 16.115-8.6601 23.61-10.983 11.992-30.003 19.433-56.027 21.918-3.6785 0.35127-7.1667 1.2154-7.7517 1.9202-0.73101 0.88083-0.7585 2.8903-0.0879 6.4264 2.4714 13.031 9.2496 18.146 24.048 18.146 9.4312 0 19.572-2.1046 29.387-6.0989 3.8414-1.5633 7.1803-2.6464 7.4197-2.407 0.95708 0.95708-4.7728 34.855-6.026 35.65-2.7632 1.7527-13.69 4.8707-22.182 6.33-10.745 1.8464-30.833 1.8642-39.244 0.0348zm19.625-83.075c17.499-2.6169 27.664-13.298 22.805-23.962-2.4693-5.4195-11.603-7.1665-18.595-3.5568-8.0953 4.1789-16.179 16.28-16.2 24.251-0.0105 3.9582 1.088 4.9089 4.9902 4.3186 1.375-0.20801 4.525-0.68103 7-1.0512zm-180.36 80.832c-1.4614-5.1366-21.872-131.37-21.329-131.91 0.70361-0.70361 34.716-4.2642 41.258-4.319l4.0713-0.0341 5.7909 46.75c3.4291 27.683 6.2884 47.279 7.0108 48.046 2.0601 2.1892 4.978-1.3381 11.413-13.796 12.755-24.694 17.653-41.376 16.882-57.5-0.26286-5.5-1.1606-11.917-1.995-14.259-1.4791-4.1527-1.4618-4.2734 0.6881-4.813 1.2129-0.30441 10.499-2.2849 20.636-4.401 10.137-2.1162 17.306-3.9411 15.931-4.0554-2.3458-0.19498-2.315-0.25116 0.5-0.91108 2.8844-0.67618 6.1101-0.0968 3.7818 0.67931-0.73346 0.24448-0.30287 2.1646 1.2484 5.5669 9.117 19.996 3.0623 50.175-17.192 85.694-7.2359 12.689-20.345 32.665-28.547 43.5l-5.2986 7-27.174 0.26594c-25.248 0.24709-27.209 0.14078-27.676-1.5zm249.36-0.61113c0-1.2899 4.725-32.163 10.5-68.607s10.5-66.664 10.5-67.155c0-0.49283 8.6766-0.89266 19.371-0.89266h19.371l0.66327 5c0.83953 6.3287 1.6564 6.3643 13.016 0.56791 4.7772-2.4376 11.788-5.1376 15.58-6 8.8937-2.0228 23.102-2.0233 29.912-0.00098 7.2099 2.1411 13.451 8.0089 15.7 14.76 3.0414 9.1316 2.1856 19.236-6.0278 71.173-4.1749 26.4-7.8504 49.238-8.1676 50.75l-0.57675 2.75h-21.862c-12.024 0-22.038-0.3375-22.253-0.75-0.21548-0.4125 2.1955-16.95 5.3578-36.75 8.9917-56.3 9.2177-58.056 7.9626-61.859-1.3424-4.0676-4.6604-5.9843-10.292-5.9454-9.1704 0.0632-18.177 4.288-19.147 8.9813-0.32077 1.5525-3.7557 23.298-7.6331 48.323s-7.2438 46.062-7.4808 46.75c-0.32722 0.94914-5.7337 1.25-22.462 1.25h-22.031v-2.3452zm149.87 1.8831c-0.43809-0.43809 4.8414-34.879 17.673-115.29l3.7102-23.25h19.373 19.373v2.9349c0 4.1082 1.6767 8.0651 3.4175 8.0651 0.80684 0 4.3055-1.7673 7.7748-3.9273 10.899-6.7861 17.425-8.5418 31.808-8.5584 11.675-0.0134 12.839 0.16439 17.638 2.6956 2.8258 1.4905 6.694 4.528 8.5959 6.75s4.2128 4.04 5.1351 4.04c0.92238 0 5.1542-1.9996 9.4041-4.4436 11.434-6.5752 18.814-8.7552 31.593-9.3322 18.881-0.85256 28.073 2.8575 33.262 13.426 4.7345 9.6422 4.0373 19.837-5.3587 78.35l-7.7881 48.5-22.24 0.26913c-21.038 0.25459-22.24 0.16954-22.24-1.5736 0-1.0135 3.15-21.738 7-46.053 3.85-24.316 7-45.568 7-47.226 0-4.0967-2.4932-8.6183-5.239-9.5014-6.6476-2.1378-21.995 1.6849-23.814 5.9316-0.50744 1.1846-4.0917 22.629-7.965 47.654s-7.2895 46.738-7.5915 48.25l-0.54916 2.75h-21.862c-12.024 0-22.043-0.3375-22.264-0.75-0.2214-0.4125 2.9065-21.675 6.9508-47.25 5.2678-33.312 7.1337-47.465 6.579-49.903-1.0954-4.8133-5.0858-7.4991-10.99-7.3968-4.5217 0.0784-15.705 3.3491-17.463 5.1074-0.45335 0.45335-4.3102 23.07-8.5708 50.258l-7.7465 49.434-22.052 0.26864c-12.129 0.14775-22.277 0.0439-22.552-0.23069zm-423.05-132.04c-0.22474-1.925-0.049-3.5 0.39059-3.5 0.43956 0 0.7992 1.575 0.7992 3.5s-0.17577 3.5-0.39059 3.5c-0.21483 0-0.57447-1.575-0.7992-3.5zm215.48-10.24c3.1826-0.19905 8.1326-0.1972 11 0.004 2.8674 0.20131 0.26349 0.36417-5.7865 0.36191-6.05-0.002-8.3961-0.16696-5.2135-0.36601zm157.5 0.002c2.9059-0.20264 7.4059-0.20051 10 0.005 2.5941 0.20526 0.21648 0.37105-5.2835 0.36845-5.5-0.003-7.6224-0.17053-4.7165-0.37317zm148.47 0.003c2.6125-0.206 6.8875-0.206 9.5 0s0.475 0.37454-4.75 0.37454-7.3625-0.16854-4.75-0.37454zm75.5-0.002c2.8875-0.202 7.6125-0.202 10.5 0s0.525 0.36728-5.25 0.36728-8.1375-0.16528-5.25-0.36728zm126.04-0.004c3.459-0.19583 8.859-0.19421 12 0.004 3.1409 0.19781 0.31081 0.35803-6.2892 0.35606-6.6-0.002-9.1699-0.16382-5.7108-0.35965z"/>
  </g>
 </g>
</svg>
