<?xml version="1.0" encoding="UTF-8" standalone="no"?>
<!-- Created with Inkscape (http://www.inkscape.org/) -->

<svg
   xmlns:dc="http://purl.org/dc/elements/1.1/"
   xmlns:cc="http://creativecommons.org/ns#"
   xmlns:rdf="http://www.w3.org/1999/02/22-rdf-syntax-ns#"
   xmlns:svg="http://www.w3.org/2000/svg"
   xmlns="http://www.w3.org/2000/svg"
   xmlns:sodipodi="http://sodipodi.sourceforge.net/DTD/sodipodi-0.dtd"
   xmlns:inkscape="http://www.inkscape.org/namespaces/inkscape"
   width="221.55447mm"
   height="41.848541mm"
   viewBox="0 0 785.03553 148.28223"
   id="svg2"
   version="1.1"
   inkscape:version="0.91 r13725"
   sodipodi:docname="venmo.svg">
  <defs
     id="defs4" />
  <sodipodi:namedview
     id="base"
     pagecolor="#ffacff"
     bordercolor="#666666"
     borderopacity="1.0"
     inkscape:pageopacity="0"
     inkscape:pageshadow="2"
     inkscape:zoom="0.7"
     inkscape:cx="428.69882"
     inkscape:cy="16.478665"
     inkscape:document-units="px"
     inkscape:current-layer="g4242"
     showgrid="false"
     fit-margin-top="0"
     fit-margin-left="0"
     fit-margin-right="0"
     fit-margin-bottom="0"
     inkscape:window-width="1440"
     inkscape:window-height="851"
     inkscape:window-x="0"
     inkscape:window-y="1"
     inkscape:window-maximized="1" />
  <metadata
     id="metadata7">
    <rdf:RDF>
      <cc:Work
         rdf:about="">
        <dc:format>image/svg+xml</dc:format>
        <dc:type
           rdf:resource="http://purl.org/dc/dcmitype/StillImage" />
        <dc:title></dc:title>
      </cc:Work>
    </rdf:RDF>
  </metadata>
  <g
     inkscape:label="Layer 1"
     inkscape:groupmode="layer"
     id="layer1"
     transform="translate(-104.52217,-215.30845)">
    <g
       id="g4242">
      <path
         style="fill:#ffffff"
         d="m 798.54497,363.07583 c -21.80534,-3.48693 -35.03792,-15.74441 -41.09933,-38.07072 -2.41436,-8.89294 -2.47594,-35.28443 -0.10733,-46.00264 4.07275,-18.42969 10.7078,-31.13186 22.20643,-42.51212 13.94142,-13.7979 27.64375,-19.31625 50.09812,-20.17606 32.80742,-1.25624 51.60891,10.83867 58.2016,37.4408 2.4469,9.87347 2.24121,31.81832 -0.41488,44.26336 -7.06637,33.10924 -26.91758,55.85893 -55.01196,63.04427 -8.51445,2.17763 -26.25172,3.23178 -33.87265,2.01311 z m 27.56432,-40.65936 c 6.63564,-5.9949 10.76835,-17.24927 12.99377,-35.38513 2.04366,-16.65461 0.74989,-26.46999 -4.13258,-31.35246 -2.61977,-2.61977 -3.42356,-2.87097 -7.83136,-2.44743 -12.25836,1.17787 -19.32861,14.13264 -22.05703,40.41495 -1.57622,15.18328 -0.1264,24.37154 4.58974,29.08768 2.74599,2.74599 4.00893,3.27103 7.86815,3.27103 3.87089,0 5.22462,-0.56691 8.56931,-3.58864 z m -536.83557,39.11517 c -20.13103,-4.58153 -33.49866,-17.71941 -38.69156,-38.02653 -2.37885,-9.30261 -2.37345,-29.86335 0.0107,-40.93909 4.19308,-19.47889 11.61521,-33.74695 24.00898,-46.15407 13.7357,-13.75051 30.62822,-20.40684 51.78872,-20.40684 16.1137,0 27.00244,4.11668 35.50983,13.42513 6.65711,7.28393 8.74243,13.27011 8.74243,25.09626 0,8.17082 -0.30869,9.6484 -3.27411,15.6717 -8.22996,16.7165 -30.29224,28.00247 -60.00882,30.69754 -5.10561,0.46304 -9.53242,1.09138 -9.83736,1.39632 -0.30494,0.30494 -0.0276,3.09221 0.61632,6.19393 1.16677,5.62031 5.05283,11.40453 9.12682,13.58487 8.88697,4.75616 31.63783,1.58881 48.10308,-6.69686 l 4.72593,-2.37819 -0.48918,2.75465 c -0.87063,4.9029 -5.46264,36.29149 -5.46264,37.34003 0,1.43321 -5.93855,3.74748 -17,6.62496 -12.14306,3.15885 -37.7077,4.12879 -47.86914,1.81619 z m 26.18134,-88.66023 c 10.61983,-3.52544 15.6878,-8.31834 15.6878,-14.83633 0,-4.46337 -1.62705,-6.97619 -5.58891,-8.63157 -9.51686,-3.97639 -23.03249,7.06006 -26.26508,21.44726 -0.50119,2.23067 -0.63603,4.33099 -0.29963,4.66739 0.94947,0.94947 10.02934,-0.51004 16.46582,-2.64675 z m -189.25225,80.3837 c -0.61642,-3.7125 -5.77702,-34.425 -11.46799,-68.25 -5.69098,-33.825 -10.28627,-61.57853 -10.21176,-61.6745 0.0745,-0.096 11.26737,-1.23588 24.87301,-2.53311 l 24.73754,-2.35861 0.51583,3.03311 c 0.6615,3.88967 11.49342,91.02477 11.49342,92.4564 0,2.82034 2.07339,0.29182 6.72089,-8.19617 7.25302,-13.24662 14.10758,-29.73121 16.88434,-40.60535 3.58402,-14.03546 3.22931,-25.18843 -1.24706,-39.21089 -0.42675,-1.33683 3.07418,-2.305 22.05163,-6.09833 l 22.55893,-4.50922 1.46937,2.24254 c 6.45017,9.84421 7.83943,30.20254 3.25198,47.65491 -6.19123,23.55372 -22.82821,54.34573 -47.03284,87.04922 l -5.73597,7.75 -28.87028,0 -28.87029,0 -1.12075,-6.75 z m 249.53395,4 c 0.29915,-1.5125 5.38154,-33.35 11.2942,-70.75 l 10.75029,-68 21.18081,-0.26989 21.1808,-0.26989 0,5.60323 c 0,3.08177 0.3375,5.45322 0.75,5.26988 0.4125,-0.18333 5.025,-2.48117 10.25,-5.1063 12.05997,-6.05915 21.1295,-8.03107 34.5,-7.50106 11.85638,0.46999 18.62156,2.95242 23.86606,8.75746 9.06057,10.02896 8.84391,20.55076 -1.78151,86.51657 -4.16378,25.85 -7.57366,47.3375 -7.57753,47.75 -0.004,0.4125 -11.04059,0.75 -24.52607,0.75 l -24.51905,0 0.49617,-2.25 c 0.48469,-2.19791 12.76455,-80.60158 14.09411,-89.98719 0.36909,-2.60546 0.38932,-5.85977 0.045,-7.23181 -0.93345,-3.71913 -5.83735,-5.87007 -11.47885,-5.03484 -6.92584,1.02539 -14.05868,4.38188 -14.62636,6.8827 -0.26486,1.16663 -3.63623,22.59614 -7.49197,47.62114 -3.85574,25.025 -7.24167,46.5125 -7.52427,47.75 l -0.51383,2.25 -24.45595,0 -24.45595,0 0.5439,-2.75 z m 149.9888,0 c 0.29298,-1.5125 5.36258,-33.35 11.26577,-70.75 l 10.73308,-68 20.95922,0 20.95923,0 0.26994,3.5 c 0.14847,1.925 0.49791,4.5259 0.77653,5.77979 l 0.50659,2.27979 4.5019,-3.0974 c 11.25318,-7.74239 24.29395,-11.38021 38.44504,-10.72453 11.73798,0.54386 17.68631,2.9392 24.00081,9.66493 l 4.50082,4.79391 8.49918,-4.87917 c 11.73556,-6.73709 19.14045,-8.89549 32.77758,-9.5541 15.80833,-0.76347 22.7626,1.14355 29.76866,8.16325 10.38928,10.40951 10.39049,17.44202 0.0141,82.57353 -4.16207,26.125 -7.82676,48.7375 -8.14375,50.25 l -0.57635,2.75 -24.23151,0 -24.23151,0 7.27725,-45.75 c 4.00249,-25.1625 7.29243,-47.61265 7.31097,-49.88922 0.0523,-6.42522 -2.51364,-8.88603 -9.12961,-8.75545 -2.93517,0.0579 -7.83967,1.07115 -10.89887,2.25158 l -5.56219,2.14625 -5.26417,33.74842 c -2.89529,18.56163 -6.41973,41.06092 -7.83208,49.99842 l -2.56791,16.25 -24.46414,0 -24.46414,0 0.53886,-2.25 c 0.29637,-1.2375 3.79198,-23.0209 7.76803,-48.40755 7.93321,-50.65282 7.93997,-50.84472 1.88146,-53.35424 -5.46526,-2.26379 -20.52825,2.21694 -21.48366,6.39065 -0.26706,1.16663 -3.64922,22.59614 -7.51593,47.62114 -3.8667,25.025 -7.25079,46.5125 -7.5202,47.75 l -0.48984,2.25 -24.45595,0 -24.45595,0 0.5327,-2.75 z"
         id="path4246"
         inkscape:connector-curvature="0" />
    </g>
    <g
       id="g4191"
       transform="translate(-11.428571,200)">
      <path
         style="fill:#3e93cf"
         d="m 848.71428,885.86224 c -4.38378,-0.68154 -4.40961,-0.70651 -1,-0.96671 3.24327,-0.2475 3.13324,-0.32864 -1.5,-1.10616 -19.72185,-3.30958 -32.56378,-15.17523 -38.16739,-35.26581 -2.07179,-7.42797 -2.82366,-28.42097 -1.40256,-39.16132 1.43219,-10.82427 5.89337,-24.67881 10.74452,-33.36794 4.76643,-8.5374 16.19145,-20.37445 24.26986,-25.14515 3.60557,-2.12926 10.15557,-5.12359 14.55557,-6.65408 7.51823,-2.61512 9.02375,-2.78421 25,-2.80776 15.1809,-0.0224 17.71189,0.22096 23.65282,2.27412 15.49684,5.35565 25.10558,15.83194 29.27352,31.91655 0.86551,3.34012 1.63752,7.58299 1.71557,9.42861 0.13964,3.30224 0.15217,3.29198 0.78691,-0.64435 1.15068,-7.13582 2.33978,10.11828 1.42593,20.6904 -0.71832,8.30999 -0.87181,8.82642 -1.42954,4.8096 l -0.62482,-4.5 -0.1502,3.79216 c -0.24921,6.29213 -3.15054,18.75124 -6.21942,26.70784 -10.06158,26.08643 -29.35396,42.84552 -54.56441,47.39955 -5.80502,1.04861 -6.9492,1.4795 -4.36636,1.64433 3.14726,0.20084 2.99608,0.30183 -1.5,1.00213 -5.98413,0.93206 -14.32937,0.91333 -20.5,-0.046 z m 24.63417,-36.9186 c 8.70196,-5.3062 14.05732,-18.89946 16.38188,-41.5814 1.87552,-18.30047 -0.65645,-29.19832 -7.44264,-32.03377 -4.79333,-2.00278 -8.16551,-1.8421 -13.27768,0.63266 -11.19827,5.42098 -17.84798,25.36542 -17.11367,51.3289 0.28516,10.08263 0.77511,13.82559 2.14237,16.36643 3.62087,6.72882 12.81638,9.24664 19.30974,5.28718 z m -522.34258,36.1761 c 3.73537,-0.19293 9.58537,-0.19149 13,0.003 3.41462,0.19468 0.35841,0.35253 -6.79159,0.35078 -7.15,-0.002 -9.94379,-0.16103 -6.20841,-0.35396 z m -12.91706,-2.74879 C 323.4537,879.1878 311.15804,869.8582 305.2856,857.48078 c -10.67033,-22.49002 -7.69185,-56.30172 7.22946,-82.06866 4.67278,-8.06921 19.0682,-22.20782 26.69922,-26.22291 12.28853,-6.46566 18.40714,-7.82961 35,-7.80213 13.27739,0.022 15.66057,0.28871 20.75209,2.32262 9.00859,3.59868 15.03919,8.9675 18.91407,16.83849 3.07111,6.23832 3.33378,7.52232 3.33309,16.29302 -8.8e-4,11.22185 -1.79563,16.11489 -8.66014,23.61024 -10.98298,11.99229 -30.00267,19.43286 -56.02722,21.91805 -3.67846,0.35127 -7.16673,1.21537 -7.75171,1.92022 -0.73101,0.88083 -0.7585,2.89031 -0.0879,6.42641 2.47137,13.03144 9.2496,18.14611 24.0482,18.14611 9.43118,0 19.57202,-2.10459 29.38719,-6.09891 3.84143,-1.56328 7.1803,-2.64645 7.4197,-2.40705 0.95708,0.95708 -4.77281,34.85499 -6.02603,35.64988 -2.76321,1.75266 -13.68973,4.87067 -22.18233,6.33001 -10.74532,1.84643 -30.83322,1.86423 -39.24448,0.0348 z m 19.62547,-83.07462 c 17.49872,-2.61688 27.66419,-13.29796 22.80531,-23.96203 -2.46929,-5.41952 -11.60261,-7.16649 -18.59515,-3.55679 -8.09526,4.17894 -16.17915,16.28024 -16.20039,24.2514 -0.0105,3.95824 1.08797,4.90891 4.99023,4.31858 1.375,-0.20801 4.525,-0.68103 7,-1.05116 z m -180.35754,80.83185 c -1.46143,-5.13665 -21.87195,-131.36978 -21.32887,-131.91286 0.70361,-0.70361 34.71633,-4.26416 41.25769,-4.31897 l 4.07128,-0.0341 5.79088,46.75 c 3.42907,27.68296 6.28841,47.2787 7.01075,48.04631 2.06007,2.18918 4.97797,-1.33809 11.41286,-13.79631 12.75501,-24.69422 17.65305,-41.37645 16.88247,-57.5 -0.26286,-5.5 -1.16062,-11.91677 -1.99502,-14.25948 -1.47908,-4.15273 -1.46183,-4.27336 0.6881,-4.81296 1.21286,-0.30441 10.49919,-2.28488 20.6363,-4.40104 10.1371,-2.11616 17.3061,-3.94107 15.9311,-4.05536 -2.34585,-0.19498 -2.31501,-0.25116 0.5,-0.91108 2.88435,-0.67618 6.11006,-0.0968 3.78184,0.67931 -0.73346,0.24448 -0.30287,2.16461 1.24838,5.56691 9.11699,19.99596 3.06229,50.17509 -17.19234,85.6937 -7.23589,12.68888 -20.34497,32.66475 -28.5467,43.5 l -5.29865,7 -27.17382,0.26594 c -25.24791,0.24709 -27.20943,0.14078 -27.67625,-1.5 z m 249.35754,-0.61113 c 0,-1.28986 4.725,-32.16316 10.5,-68.60734 5.775,-36.44418 10.5,-66.66384 10.5,-67.15481 0,-0.49283 8.67657,-0.89266 19.37117,-0.89266 l 19.37117,0 0.66327,5 c 0.83953,6.32869 1.6564,6.36433 13.0161,0.56791 4.77725,-2.43764 11.78803,-5.13764 15.5795,-5.99999 8.89373,-2.02284 23.10235,-2.0233 29.91226,-9.8e-4 7.20989,2.14111 13.45132,8.00887 15.69978,14.75985 3.04137,9.13164 2.18559,19.23622 -6.02784,71.17321 -4.17494,26.4 -7.85035,49.2375 -8.16757,50.75 l -0.57675,2.75 -21.86153,0 c -12.02384,0 -22.03783,-0.3375 -22.25332,-0.75 -0.21548,-0.4125 2.19554,-16.95 5.35783,-36.75 8.99169,-56.29955 9.21772,-58.05553 7.96261,-61.85855 -1.34244,-4.06764 -4.6604,-5.98428 -10.29236,-5.94544 -9.17035,0.0632 -18.17699,4.28805 -19.14667,8.98126 -0.32077,1.5525 -3.75567,23.29773 -7.63311,48.32273 -3.87744,25.025 -7.24382,46.0625 -7.48083,46.75 -0.32722,0.94914 -5.73372,1.25 -22.46233,1.25 l -22.03138,0 0,-2.34519 z m 149.87128,1.88314 c -0.43809,-0.43809 4.84145,-34.87869 17.67294,-115.28795 l 3.71018,-23.25 19.3728,0 19.3728,0 0,2.9349 c 0,4.10818 1.6767,8.0651 3.4175,8.0651 0.80684,0 4.30548,-1.76727 7.77475,-3.92727 10.89939,-6.78608 17.42475,-8.54183 31.80775,-8.55836 11.67548,-0.0134 12.8389,0.16439 17.63785,2.69565 2.82582,1.49051 6.69399,4.52801 8.59593,6.75 1.90194,2.22199 4.21275,4.03998 5.13512,4.03998 0.92238,0 5.15421,-1.9996 9.40407,-4.44357 11.43385,-6.57523 18.81382,-8.75521 31.5928,-9.33224 18.88118,-0.85256 28.07251,2.85753 33.26197,13.42625 4.73451,9.64217 4.03728,19.83653 -5.35868,78.34956 l -7.78807,48.5 -22.24049,0.26913 c -21.03846,0.25459 -22.2405,0.16954 -22.2405,-1.57359 0,-1.0135 3.15,-21.73757 7,-46.05348 3.85,-24.31592 7,-45.56765 7,-47.22607 0,-4.09671 -2.49321,-8.61833 -5.23903,-9.50136 -6.64765,-2.13784 -21.99495,1.68488 -23.81421,5.93165 -0.50744,1.18455 -4.09168,22.62872 -7.96498,47.65372 -3.8733,25.025 -7.28949,46.7375 -7.59153,48.25 l -0.54916,2.75 -21.86153,0 c -12.02384,0 -22.04267,-0.3375 -22.26407,-0.75 -0.2214,-0.4125 2.90647,-21.675 6.95082,-47.25 5.2678,-33.31159 7.13373,-47.46515 6.57897,-49.90295 -1.09535,-4.81328 -5.08576,-7.49908 -10.98967,-7.39676 -4.52166,0.0784 -15.70497,3.34907 -17.46325,5.10735 -0.45335,0.45335 -4.3102,23.0696 -8.57078,50.25832 l -7.7465,49.43404 -22.05224,0.26864 c -12.12873,0.14775 -22.27693,0.0439 -22.55156,-0.23069 z M 153.52449,749.36224 c -0.22474,-1.925 -0.049,-3.5 0.39059,-3.5 0.43956,0 0.7992,1.575 0.7992,3.5 0,1.925 -0.17577,3.5 -0.39059,3.5 -0.21483,0 -0.57447,-1.575 -0.7992,-3.5 z m 215.4763,-10.24008 c 3.18258,-0.19905 8.13258,-0.1972 11,0.004 2.86742,0.20131 0.26349,0.36417 -5.78651,0.36191 -6.05,-0.002 -8.39607,-0.16696 -5.21349,-0.36601 z m 157.49701,0.002 c 2.90594,-0.20264 7.40594,-0.20051 10,0.005 2.59406,0.20526 0.21648,0.37105 -5.28352,0.36845 -5.5,-0.003 -7.62242,-0.17053 -4.71648,-0.37317 z m 148.46648,0.003 c 2.6125,-0.206 6.8875,-0.206 9.5,0 2.6125,0.206 0.475,0.37454 -4.75,0.37454 -5.225,0 -7.3625,-0.16854 -4.75,-0.37454 z m 75.5,-0.002 c 2.8875,-0.202 7.6125,-0.202 10.5,0 2.8875,0.202 0.525,0.36728 -5.25,0.36728 -5.775,0 -8.1375,-0.16528 -5.25,-0.36728 z m 126.03919,-0.004 c 3.45905,-0.19583 8.85905,-0.19421 12,0.004 3.14094,0.19781 0.31081,0.35803 -6.28919,0.35606 -6.6,-0.002 -9.16987,-0.16382 -5.71081,-0.35965 z"
         id="path4193"
         inkscape:connector-curvature="0" />
    </g>
  </g>
</svg>
