<?xml version="1.0" encoding="UTF-8" standalone="no"?>
<svg id="svg76" xmlns:rdf="http://www.w3.org/1999/02/22-rdf-syntax-ns#" xmlns="http://www.w3.org/2000/svg" enable-background="new 0 0 100 100" xml:space="preserve" height="80" width="62.841" version="1.1" y="0px" x="0px" xmlns:cc="http://creativecommons.org/ns#" xmlns:dc="http://purl.org/dc/elements/1.1/" viewBox="0 0 62.841351 80"><metadata id="metadata84"><rdf:RDF><cc:Work rdf:about=""><dc:format>image/svg+xml</dc:format><dc:type rdf:resource="http://purl.org/dc/dcmitype/StillImage"/><dc:title/></cc:Work></rdf:RDF></metadata><path id="path78" d="m60.652 0h-58.462c-1.2076 0-2.19 0.98202-2.19 2.1896v75.621c0 1.2076 0.98242 2.1896 2.19 2.1896h58.462c1.2071 0 2.1896-0.98202 2.1896-2.1896v-75.621c-0.001-1.208-0.983-2.19-2.19-2.19zm-59.082 16.552h59.701v52.138h-59.701v-52.138zm0-14.363c0-0.34173 0.27798-0.62012 0.61971-0.62012h58.462c0.34173 0 0.61931 0.27839 0.61931 0.62012v13.206h-59.701v-13.206zm59.701 75.621c0 0.34173-0.27758 0.61971-0.61931 0.61971h-58.462c-0.34173 0-0.61971-0.27798-0.61971-0.61971v-7.963h59.701v7.963zm-29.85-73.697c-2.3409 0-4.2456 1.9043-4.2456 4.2452s1.9047 4.2452 4.2456 4.2452 4.2452-1.9043 4.2452-4.2452-1.9043-4.2452-4.2452-4.2452zm0 6.9201c-1.4754 0-2.6753-1.1999-2.6753-2.6749s1.1999-2.6753 2.6753-2.6753c1.475 0 2.6749 1.2003 2.6749 2.6753s-1.1999 2.6749-2.6749 2.6749zm27.899-6.6026v5.3216c0 0.5479-0.44401 0.9917-0.9915 0.9917h-13.022c-0.5477 0-0.9916-0.4438-0.9916-0.9917v-5.3216c0-0.54749 0.4439-0.9917 0.9916-0.9917h13.022c0.54749 0 0.9915 0.44421 0.9915 0.9917zm-39.546 4.5611h-13.642c-0.9796 0-1.7764 0.79723-1.7764 1.7768v1.5283c0 0.9796 0.79683 1.7768 1.7764 1.7768h13.642c0.9796 0 1.7764-0.79723 1.7764-1.7768v-1.5283c0-0.9796-0.79682-1.7768-1.7764-1.7768zm0.20616 3.3051c0 0.11418-0.09239 0.20657-0.20616 0.20657h-13.642c-0.11378 0-0.20617-0.09239-0.20617-0.20657v-1.5283c0-0.11378 0.09239-0.20657 0.20617-0.20657h13.642c0.11377 0 0.20616 0.0928 0.20616 0.20657v1.5283zm21.27-7.4228h-4.5792v-1.1567h4.5792v1.1567zm-4.5792 1.5517h5.2332v1.1567h-5.2332v-1.1567zm4.5792 3.8651h-4.5792v-1.1571h4.5792v1.1571zm-4.5792 1.5517h5.1513v1.1563h-5.1513v-1.1563zm-5.2506 14.208c-6.4886 0-12.113 3.7211-14.887 9.1343-0.39549 0.77181-0.73692 1.5755-1.0101 2.4107-0.40245 1.2305-0.65955 2.5232-0.76496 3.8595-0.0347 0.43816-0.06718 0.87712-0.06718 1.3242 0 0.1751 0.02098 0.34536 0.02623 0.51884 0.01221 0.39337 0.02058 0.78755 0.05951 1.1741 0.05709 0.56525 0.14182 1.1224 0.25408 1.6703 0.11852 0.57856 0.27113 1.1446 0.44794 1.7002 0.29049 0.91262 0.66368 1.7869 1.0993 2.6245 2.7897 5.3636 8.3898 9.0411 14.842 9.0411 0.19114 0 0.37663-0.02219 0.56625-0.02865 0.59368-0.01977 1.1783-0.07101 1.7549-0.1517 2.7055-0.37804 5.2033-1.398 7.3352-2.9122 0.42807-0.3038 0.84131-0.62617 1.2384-0.9683 3.5647-3.0703 5.8342-7.6052 5.8342-12.668 0-9.2238-7.5047-16.729-16.729-16.729zm-15.159 16.729c0-0.13395 0.01664-0.26386 0.02017-0.397l5.6165-3.2898 0.52732 0.90052-6.1235 3.5859c-0.01412-0.26628-0.04055-0.52974-0.04055-0.79965zm0.22573 2.5103 7.4089-4.3388c0.17954-0.1053 0.31026-0.27758 0.36271-0.4789 0.05285-0.20132 0.0234-0.41556-0.0819-0.5951l-1.3205-2.2545c-0.218-0.375-0.699-0.501-1.073-0.281l-5.3242 3.1179c0.22684-1.467 0.66177-2.8625 1.2789-4.1601l5.3659-3.1425 5.089 8.6897-10.9 6.3835c-0.36372-0.93925-0.63373-1.9221-0.80449-2.9404zm7.9705-12.926 0.59348-0.34738 5.0892 8.6893-0.59389 0.34778-5.0888-8.6897zm8.3742 25.504-2.7197-4.3694c-0.14524-0.2332-0.39902-0.36997-0.66651-0.36997-0.05285 0-0.10611 0.0052-0.15937 0.01654-0.32196 0.06617-0.56847 0.3268-0.61689 0.65239l-0.16784 1.1224-2.1888 0.02864c0.40709-1.5872 1.003-4.6438 0.27879-6.8555 1.5557 1.0934 3.3398 1.2838 4.6119 0.44259 1.2717-0.84161 1.7934-2.5583 1.3952-4.4179 1.753 1.5311 4.7995 2.1779 6.4194 2.424l-0.88236 2.0032-1.0982-0.28484c-0.31954-0.08231-0.65481 0.04277-0.84201 0.31308-0.18761 0.27032-0.1864 0.62899 0.0028 0.8981l3.9768 5.6621c-2.1142 1.5033-4.6224 2.4821-7.3432 2.7346zm8.575-3.7126-2.741-3.9022c0.27354-0.02824 0.52127-0.20012 0.63786-0.46478l1.5763-3.5787c0.10208-0.23239 0.08553-0.49908-0.04357-0.71735-0.12951-0.21786-0.35626-0.35988-0.60882-0.38127-1.4827-0.12588-5.6294-0.83717-6.9964-2.5934-0.25216-0.32438-0.71129-0.39821-1.0522-0.17268l-0.96023 0.63504c-0.29775 0.19689-0.42525 0.57008-0.31026 0.90818 0.49222 1.4444 0.26265 2.7863-0.5717 3.3382-0.83274 0.55193-2.1581 0.23885-3.2958-0.77908-0.26709-0.23845-0.66046-0.26588-0.957-0.0698l-0.95982 0.63545c-0.34173 0.22634-0.45187 0.67781-0.25257 1.0365 1.0821 1.9447 0.11539 6.0398-0.34818 7.4531-0.07908 0.24087-0.03712 0.50554 0.11297 0.70969 0.15049 0.20415 0.38894 0.3268 0.64311 0.32034l3.9103-0.05164c0.28888-0.004 0.54386-0.16461 0.677-0.40547l1.1475 1.8434c-5.701-0.152-10.621-3.46-13.077-8.246l13.675-8.0086c0.374-0.21948 0.49989-0.7004 0.28081-1.074l-0.57856-0.98847-5.3039-9.056c-0.1053-0.17954-0.27758-0.30986-0.4789-0.36271-0.20052-0.05204-0.41556-0.023-0.5951 0.0819l-5.4368 3.1841c2.7773-3.5403 7.0831-5.8275 11.922-5.8275 8.3584 0 15.159 6.8003 15.159 15.159 0.000001 4.5324-2.0094 8.5949-5.172 11.375zm16.448-17.629-3.085-1.851c-3.363-9.661-12.557-16.616-23.349-16.616-13.631 0-24.72 11.089-24.72 24.72s11.089 24.721 24.72 24.721c10.792 0 19.986-6.9548 23.349-16.616l3.0852-1.8511c0.69869-0.4196 1.1262-1.1745 1.1262-1.989v-2.8181-2.892-2.8182c0.000001-0.81499-0.42746-1.5699-1.1262-1.989zm-26.434 27.668c-11.808 0-21.415-9.6071-21.415-21.416 0-0.37764 0.01049-0.75285 0.02986-1.1256 0.05084-0.97475 0.17187-1.9309 0.34919-2.8674 1.8767-9.9057 10.593-17.422 21.036-17.422 11.808 0 21.415 9.6063 21.415 21.415 0 11.808-9.6067 21.416-21.415 21.416zm12.139-15.247-1.399-0.712c0.86582-1.699 1.3044-3.5347 1.3044-5.456h1.5703c0 2.1714-0.49666 4.2468-1.4754 6.1685zm-0.208-7.829c-0.138-1.001-0.403-1.983-0.787-2.916l1.4516-0.59712c0.43493 1.0563 0.7343 2.1666 0.89043 3.2987l-1.5549 0.21464zm-8.5759-8.6392h-0.82628c0-0.56202-0.45712-1.0195-1.0191-1.0195-0.16461 0-0.32801 0.04034-0.47245 0.1162l-0.38409-0.73187c0.26265-0.13758 0.55879-0.21061 0.85654-0.21061 1.0175 0 1.8454 0.8279 1.8454 1.8458zm2.424 0.66127c-0.31318 0-0.61003 0.06778-0.87984 0.1864 0.06849-0.27274 0.11569-0.55354 0.11569-0.84766 0-1.9326-1.5727-3.5048-3.5052-3.5048-1.9326 0-3.5048 1.5723-3.5048 3.5048 0 1.9326 1.5723 3.5048 3.5048 3.5048 0.78028 0 1.4946-0.26507 2.0777-0.69798-0.000404 0.01735-0.0051 0.03308-0.0051 0.05083 0 1.2112 0.98565 2.1964 2.1968 2.1964s2.1964-0.98524 2.1964-2.1964-0.98524-2.1964-2.1964-2.1964zm-4.2694 1.6865c-1.2947 0-2.3477-1.053-2.3477-2.3477s1.053-2.3481 2.3477-2.3481 2.3481 1.0534 2.3481 2.3481-1.0534 2.3477-2.3481 2.3477zm4.2694 1.5493c-0.57331 0-1.0397-0.4664-1.0397-1.0393 0-0.57372 0.4664-1.0401 1.0397-1.0401 0.57332 0 1.0393 0.4664 1.0393 1.0401 0 0.57291-0.46599 1.0393-1.0393 1.0393z"/></svg>
